<svg id="Layer_1" data-name="Layer 1" xmlns="http://www.w3.org/2000/svg" xmlns:xlink="http://www.w3.org/1999/xlink" viewBox="0 0 197 170"><defs><style>.cls-1,.cls-2,.cls-3{fill:#fff;}.cls-1{filter:url(#luminosity-invert-noclip);}.cls-10,.cls-3,.cls-7{fill-rule:evenodd;}.cls-4{mask:url(#mask);}.cls-5,.cls-7{fill:none;}.cls-6{mask:url(#mask-2);}.cls-8{mask:url(#mask-3);}.cls-10,.cls-9{fill:#1c1c1b;}.cls-11{filter:url(#luminosity-invert-noclip-3);}.cls-12{filter:url(#luminosity-invert-noclip-2);}</style><filter id="luminosity-invert-noclip" x="46.03" y="81.02" width="120.62" height="43.7" filterUnits="userSpaceOnUse" color-interpolation-filters="sRGB"><feColorMatrix values="-1 0 0 0 1 0 -1 0 0 1 0 0 -1 0 1 0 0 0 1 0" result="invert"/><feFlood flood-color="#fff" result="bg"/><feBlend in="invert" in2="bg"/></filter><mask id="mask" x="46.03" y="81.02" width="120.62" height="43.7" maskUnits="userSpaceOnUse"><path class="cls-1" d="M165.79,87.58a3,3,0,0,0-4.58-.2A20.84,20.84,0,0,1,159.47,89a3.4,3.4,0,0,0-.8,1,2.82,2.82,0,0,0-1.14.47c-.65.43-1.35.86-2.07,1.25a3.26,3.26,0,0,0-1,.85,3,3,0,0,0-1.18.25h0c-.74.34-1.5.66-2.3,1a3.15,3.15,0,0,0-1.08.72,2.8,2.8,0,0,0-1.28.12q-1.17.39-2.4.72a3.14,3.14,0,0,0-1.17.62,3,3,0,0,0-1.3,0c-.81.19-1.63.37-2.48.53a3.11,3.11,0,0,0-1.2.54,2.75,2.75,0,0,0-1.28-.09h0c-.83.14-1.67.26-2.53.38a2.88,2.88,0,0,0-1.24.47,2.78,2.78,0,0,0-1.34-.16c-.83.09-1.67.17-2.51.24a3.08,3.08,0,0,0-1.29.43,3.09,3.09,0,0,0-1.05-.23h-.24c-.85.06-1.71.11-2.57.15a2.89,2.89,0,0,0-1.29.38,2.85,2.85,0,0,0-1.12-.28h-.18l-2.56,0a3.13,3.13,0,0,0-1.31.33,3,3,0,0,0-1.29-.3l-2.63,0a2.89,2.89,0,0,0-1.27.3,3.07,3.07,0,0,0-1.29-.35l-2.52-.08a2.94,2.94,0,0,0-1.39.26,2.84,2.84,0,0,0-1.28-.37l-2.6-.14H105a2.78,2.78,0,0,0-1,.25,2.85,2.85,0,0,0-1.3-.42h0l-2.77-.2h0a3,3,0,0,0-1.12.23,2.9,2.9,0,0,0-1.26-.42l-2.78-.25h-.15a3.09,3.09,0,0,0-1,.22,3,3,0,0,0-1.29-.46l-2.56-.26a2.93,2.93,0,0,0-1.38.18A3,3,0,0,0,87,96.37l-1-.11q-.87-.09-1.74-.15H84a3.07,3.07,0,0,0-1.08.27A2.8,2.8,0,0,0,81.53,96h-.79c-.67,0-1.34,0-2,0a3,3,0,0,0-1.37.41,3.1,3.1,0,0,0-1.17-.24H76c-.93.09-1.85.19-2.75.32a3,3,0,0,0-1.32.55A2.88,2.88,0,0,0,70.58,97l-.12,0c-.92.18-1.82.38-2.71.59a3,3,0,0,0-1.28.67,3,3,0,0,0-1.42,0c-.91.27-1.79.55-2.64.83a3.21,3.21,0,0,0-1.23.79,3,3,0,0,0-1.41.17c-.91.35-1.77.72-2.58,1.07a3.26,3.26,0,0,0-1.18.91,3,3,0,0,0-1.39.3h0c-.93.47-1.77.92-2.55,1.37a3.41,3.41,0,0,0-1.1,1.07,2.9,2.9,0,0,0-1.4.5h0c-2.24,1.56-3.53,2.86-3.53,5a3.49,3.49,0,0,0,3.22,3.7,3.15,3.15,0,0,0,2.8-1.78c.19-.15.48-.38.91-.68a3.28,3.28,0,0,0,.89-.93A3.22,3.22,0,0,0,55,110.2c.67-.39,1.41-.79,2.21-1.19a3.28,3.28,0,0,0,1-.84h.07l.69,0,.49-.21c.74-.33,1.52-.66,2.34-1a3,3,0,0,0,1.14-.76,2.84,2.84,0,0,0,.31.06l.54,0,.39-.13c.78-.26,1.58-.52,2.4-.75a3.1,3.1,0,0,0,1.21-.68,2.53,2.53,0,0,0,.56.11l.68-.08c.8-.19,1.61-.37,2.46-.53a3,3,0,0,0,1.19-.53,2.66,2.66,0,0,0,.85.15l.4,0c.81-.12,1.64-.22,2.49-.29a3,3,0,0,0,1.24-.41,3.24,3.24,0,0,0,1.22.24h0c.58,0,1.17,0,1.75,0h.76a2.84,2.84,0,0,0,1.19-.27,3,3,0,0,0,1.23.38c.51,0,1,.08,1.53.13l1.3.13a3,3,0,0,0,1-.2,3,3,0,0,0,1.3.46l2.5.25.41,0A2.9,2.9,0,0,0,93,104a3,3,0,0,0,1.3.45l2.67.24h.21a2.89,2.89,0,0,0,1.1-.23,3,3,0,0,0,1.3.43l2.58.18.27,0a2.83,2.83,0,0,0,1.15-.25,2.88,2.88,0,0,0,1.31.41c.87,0,1.75.1,2.79.14a2.92,2.92,0,0,0,1.21-.26,2.92,2.92,0,0,0,1.31.38l2.74.08a2.89,2.89,0,0,0,1.27-.29,2.92,2.92,0,0,0,1.32.35l2.67,0a2.93,2.93,0,0,0,1.34-.34,3,3,0,0,0,1.33.32l2.68-.07a2.91,2.91,0,0,0,1.34-.38,3.23,3.23,0,0,0,1.32.29h0l2.7-.16a2.94,2.94,0,0,0,1.32-.43,2.87,2.87,0,0,0,1.14.24h.21c.9-.08,1.8-.17,2.69-.27a3,3,0,0,0,1.31-.48,3,3,0,0,0,1,.18l.39,0c.9-.12,1.79-.26,2.69-.4a3,3,0,0,0,1.29-.56,2.88,2.88,0,0,0,.83.13l.56,0c.91-.18,1.8-.37,2.68-.57a3,3,0,0,0,1.31-.7,2.44,2.44,0,0,0,.61.12l.76-.11c.91-.25,1.8-.51,2.67-.8a3.15,3.15,0,0,0,1.27-.8,3.17,3.17,0,0,0,.35.06l.61,0,.43-.17c.9-.34,1.78-.71,2.63-1.1a3.19,3.19,0,0,0,1.18-1h0a3,3,0,0,0,1.42-.37c.89-.49,1.74-1,2.55-1.55a3.5,3.5,0,0,0,1.08-1.21,2.92,2.92,0,0,0,1.37-.61,28.22,28.22,0,0,0,2.32-2.15,4,4,0,0,0,.17-5.13Z"/></mask><filter id="luminosity-invert-noclip-2" x="15.16" y="10.75" width="151.1" height="84.96" filterUnits="userSpaceOnUse" color-interpolation-filters="sRGB"><feColorMatrix values="-1 0 0 0 1 0 -1 0 0 1 0 0 -1 0 1 0 0 0 1 0" result="invert"/><feFlood flood-color="#fff" result="bg"/><feBlend in="invert" in2="bg"/></filter><mask id="mask-2" x="15.16" y="10.75" width="151.1" height="84.96" maskUnits="userSpaceOnUse"><g class="cls-12"><ellipse class="cls-2" cx="33.76" cy="71.27" rx="18.6" ry="24.44" transform="translate(-0.76 0.37) rotate(-0.61)"/></g></mask><filter id="luminosity-invert-noclip-3" x="63.48" y="113.81" width="105.07" height="37.78" filterUnits="userSpaceOnUse" color-interpolation-filters="sRGB"><feColorMatrix values="-1 0 0 0 1 0 -1 0 0 1 0 0 -1 0 1 0 0 0 1 0" result="invert"/><feFlood flood-color="#fff" result="bg"/><feBlend in="invert" in2="bg"/></filter><mask id="mask-3" x="63.48" y="113.81" width="105.07" height="37.78" maskUnits="userSpaceOnUse"><g class="cls-11"><path class="cls-3" d="M123.47,127.74c1.15-1.34-1.55.94,0,0"/><path class="cls-3" d="M120.1,119.06l-.9,0c-.74,1,1.49,1.28,1.34.47-.28,0-.53-.09-.44-.43"/><path class="cls-3" d="M149.72,135.3c0-.23-.35-.49-.45,0,0,.23.35.48.45,0"/><path class="cls-3" d="M129.08,131.55a2.16,2.16,0,0,1-.51,1.63,3.15,3.15,0,0,0,2.24.51c.24-1.41-.05-2.36-1.73-2.14"/><path class="cls-3" d="M157.47,121.52c.58,0,.61.56,1.34.47.74-1-1.49-1.28-1.34-.47"/><path class="cls-3" d="M134.33,132c.12.12.69-.17.47-.4s-.7.17-.47.4"/><path class="cls-3" d="M101,148.14c1.14-1.34-1.55.94,0,0"/><path class="cls-3" d="M164.15,130.17c0,.23.35.48.45,0,0-.23-.35-.49-.45,0"/><path class="cls-3" d="M141.26,137.07c-.09.48-.84.9,0,1.24.08-.49.84-.91,0-1.24"/><path class="cls-3" d="M153.21,140.76c0,.23.34.48.45,0,0-.23-.35-.49-.45,0"/><path class="cls-3" d="M92.88,135.37a1.26,1.26,0,0,0-1.39.78c.71,0,1.56.12,1.39-.78"/><path class="cls-3" d="M159.3,125.79c.12.12.69-.17.47-.39s-.69.17-.47.39"/><path class="cls-3" d="M141.74,124.24c.12.12.69-.17.47-.39s-.69.17-.47.39"/><path class="cls-3" d="M148.7,128.45c-.61.53-.66,1.52.39,1.68.6-.53.65-1.52-.39-1.68"/><path class="cls-3" d="M116.68,119.69l.9,0c0-.41.39-.47.49-.8-.71,0-1.57-.12-1.39.77"/><path class="cls-3" d="M150,125.9c-.12-.12-.69.18-.47.4s.7-.17.47-.4"/><path class="cls-3" d="M163.17,125.2c.14-.64,1-.24,1.35.06.11-1,.16-2-.82-2.11-.15.48-1.88,1.49-.53,2"/><path class="cls-3" d="M139.86,134.43c.12.12.69-.17.47-.39s-.69.17-.47.39"/><path class="cls-3" d="M140,130.71c.57-2.38-1.94-.25,0,0"/><path class="cls-3" d="M139.42,140c0,.23.35.48.45,0,0-.24-.35-.49-.45,0"/><polygon class="cls-3" points="149.4 138.72 150.31 138.76 150.34 137.93 149.43 137.89 149.4 138.72"/><path class="cls-3" d="M136.9,134.89a1.16,1.16,0,0,0-.85-1.28,1.14,1.14,0,0,0,.85,1.28"/><path class="cls-3" d="M90.33,140.53a3.2,3.2,0,0,0,2.24.51c.74-1.23-2.29-1.19-2.24-.51"/><path class="cls-3" d="M146.62,124.42c0-.42.39-.48.48-.81-.71,0-1.56-.12-1.38.77Z"/><path class="cls-3" d="M103.43,149.33c0,.23.35.48.45,0,0-.23-.34-.49-.45,0"/><path class="cls-3" d="M121.93,150.09c.56-2.38-2-.25,0,0"/><path class="cls-3" d="M139,140.43l.05-1.24c-1.29-.66-1.38,1.79-.05,1.24"/><path class="cls-3" d="M117,124.06c0,.23.35.49.45,0,0-.23-.35-.48-.45,0"/><path class="cls-3" d="M155,122.27c-.13.11.2.63.44.43s-.2-.64-.44-.43"/><path class="cls-3" d="M138.82,133.38l0,1.24.9,0c.05-.53.61-.55.5-1.23Z"/><path class="cls-3" d="M120.47,122.77c-.35.08-.89,0-.91.38.35-.08.88,0,.91-.38"/><path class="cls-3" d="M148.63,124.07a.42.42,0,0,0,0,.83c0-.46.69-.61,0-.83"/><polygon class="cls-3" points="127.56 126.89 126.66 126.85 126.63 127.68 127.53 127.72 127.56 126.89"/><path class="cls-3" d="M138,130.47c.12.12.69-.17.46-.39s-.69.17-.46.39"/><polygon class="cls-3" points="159.16 130.41 160.07 130.45 160.1 129.62 159.19 129.58 159.16 130.41"/><path class="cls-3" d="M158.78,128.74c.35-.08.88,0,.91-.38-.35.08-.89,0-.91.38"/><path class="cls-3" d="M157.47,127.44l.05-1.24c-1.3-.67-1.39,1.79-.05,1.24"/><path class="cls-3" d="M158.4,126.65c0,.41.77.55.9,0-.5,0-.68-.64-.9,0"/><path class="cls-3" d="M138.6,135.33c0-.23-.35-.48-.45,0,0,.23.35.49.45,0"/><path class="cls-3" d="M159.37,125c-.12-.12-.7.17-.47.4s.69-.18.47-.4"/><path class="cls-3" d="M144.27,137.93c1.47,1.33,1.42-1.47,0,0"/><path class="cls-3" d="M143.83,137.5l0-1.24c-1.29-.66-1.38,1.8,0,1.24"/><path class="cls-3" d="M120.51,120.67c.12.12.69-.17.47-.4s-.69.18-.47.4"/><path class="cls-3" d="M126.06,140.53c.36-.08.89,0,.92-.37-.35.07-.89,0-.92.37"/><polygon class="cls-3" points="89.04 132.97 88.13 132.93 88.1 133.76 89 133.8 89.04 132.97"/><path class="cls-3" d="M101.81,145c-.08-.5-.5-.27-.91,0,0,.41.77.55.91,0"/><path class="cls-3" d="M142.76,130l.9,0c0-.42.39-.48.48-.81-.7,0-1.56-.12-1.38.77"/><path class="cls-3" d="M142.31,121c1.14-1.34-1.56.94,0,0"/><path class="cls-3" d="M95.21,140.2c-.27,0-.53-.08-.43-.43l-.91,0c-.74,1,1.49,1.28,1.34.47"/><path class="cls-3" d="M121.65,125.9c0,.23.35.48.45,0,0-.24-.35-.49-.45,0"/><path class="cls-3" d="M148.2,120.39c-.35.08-.89,0-.92.38.36-.08.89,0,.92-.38"/><path class="cls-3" d="M144.27,125.92c0,.23.35.48.45,0,0-.23-.35-.49-.45,0"/><path class="cls-3" d="M142,125.41c.12.12.69-.17.47-.39s-.7.17-.47.39"/><path class="cls-3" d="M114,117.14c.55.59,2.19.73,2.27-.32-.66.2-2.31-.58-2.27.32"/><path class="cls-3" d="M163.47,129c.35-.07.89,0,.92-.37-.36.08-.9,0-.92.37"/><path class="cls-3" d="M156.46,123.3c-.36.08-.9,0-.92.38.35-.08.89,0,.92-.38"/><path class="cls-3" d="M144.74,124.72c1.14-1.34-1.55.94,0,0"/><path class="cls-3" d="M136.67,140.72l-1.35-.06c-.17,1.08.1,1.79,1.29,1.71Z"/><path class="cls-3" d="M145.24,141.07c.12-1-.65-1.33-1.29-1.71-.71.72-.37,3,1.24,2.95,1-.62,2.36-.8,2.79-2-1.67-.51-1.33,1-2.74.72"/><path class="cls-3" d="M131.29,139.66l.05-1.24c-1.3-.66-1.39,1.8-.05,1.24"/><path class="cls-3" d="M149.85,137.93c-.13.11.2.64.44.44s-.2-.64-.44-.44"/><path class="cls-3" d="M104.43,150.21c-.25,0-.52.31,0,.41.25,0,.52-.31,0-.41"/><path class="cls-3" d="M86.16,134.56c.13-1.18.14-2.26-1.28-2.12a1.85,1.85,0,0,1-.5,1.22c.9,0,.54,1.15,1.78.9"/><path class="cls-3" d="M124.14,125.2c0-.25.09-.49.47-.39l0-.83c-1.09-.69-1.38,1.35-.5,1.22"/><path class="cls-3" d="M104.6,146.47c0-.23-.35-.48-.45,0,0,.23.35.49.45,0"/><path class="cls-3" d="M110.93,146.32c0-.23-.35-.49-.45,0,0,.23.34.49.45,0"/><path class="cls-3" d="M124.38,139.94c1.14-1.34-1.55.94,0,0"/><path class="cls-3" d="M156.78,123.15c.35-.08.89,0,.92-.38-.36.08-.89,0-.92.38"/><path class="cls-3" d="M117.26,146.17c.12.11.69-.18.47-.4s-.7.17-.47.4"/><path class="cls-3" d="M126.93,128.79c-.36.08-.9,0-.92.38.35-.08.89,0,.92-.38"/><path class="cls-3" d="M136.33,143.63c-1.3-.66-1.39,1.8-.05,1.25Z"/><path class="cls-3" d="M147.62,143.69c-.12-.13-.69.17-.47.39s.7-.17.47-.39"/><path class="cls-3" d="M153.93,134.94c-.35.08-.89,0-.92.38.36-.08.89,0,.92-.38"/><path class="cls-3" d="M104.89,150.63c2.88-.18.13-2.48-.4-1.26.52.09.47.67.4,1.26"/></g></mask></defs><title>Adventure Fund</title><polygon points="79.89 16.75 82.08 19.76 85.79 19.67 83.61 22.68 84.84 26.18 81.31 25.03 78.35 27.29 78.36 23.57 75.29 21.46 78.83 20.32 79.89 16.75"/><polygon points="96.11 10.54 99.05 14.59 104.05 14.46 101.1 18.51 102.77 23.22 98.01 21.67 94.04 24.71 94.04 19.71 89.93 16.87 94.68 15.33 96.11 10.54"/><polygon points="113.14 11.08 115.32 14.09 119.04 14 116.85 17 118.09 20.51 114.55 19.36 111.6 21.62 111.6 17.9 108.54 15.79 112.08 14.64 113.14 11.08"/><path d="M42.65,84.65c-.82,5.63-2.3,15.53-1.82,18.1.58,3.13,1.76,4.32,3.93,3.85a1,1,0,0,1,1.17.88,1.1,1.1,0,0,1-.78,1.25c-3.48.64-5.54-1.44-6.3-5.55-.56-3,1-13.15,1.88-18.84l.08-.59L31,85.84c-2.43,7.63-5.66,16.31-11.33,17.52-3.83.82-7.5-1.18-8.27-5.29-.8-4.36,1.9-8.9,5.59-9.69a4.73,4.73,0,0,1,2.21,0,1,1,0,0,1,.73.82,1.07,1.07,0,0,1-.78,1.25,9.35,9.35,0,0,0-1.77,0c-2.68.57-4.61,4.13-4,7.2.52,2.82,3.17,4.16,5.93,3.57,4.66-1,7.38-8.58,9.47-14.9l-2.26.48A1,1,0,0,1,25.31,86a1.12,1.12,0,0,1,.81-1.31L29.54,84c.74-2.42,1.44-4.89,2.15-7.26A98.78,98.78,0,0,1,35.5,64.91c1-2,2.59-3.6,4.21-3.94,2.76-.59,4,1.09,4.54,3.82.69,3.71-.1,9.29-.67,13.48C43.14,81.56,42.77,84,42.65,84.65ZM42.4,65.44c-.3-1.64-1-2.63-2.3-2.34a5,5,0,0,0-2.8,2.76,96,96,0,0,0-3.72,11.46c-.59,2-1.2,4.12-1.83,6.16l9.36-2,.49-3.56C42.07,74.52,43,68.66,42.4,65.44Z"/><path d="M68.46,81.65a1.49,1.49,0,0,1,0,.47c-1.53,6.76-3.33,11.52-7.57,12.43-2.17.47-3.71-.85-4.22-3.63-1.16,2.82-2.7,5.11-5,5.62C49,97.09,47.39,95,46.84,92c-1.2-6.49,1.26-19.07,6.84-20.26a4.25,4.25,0,0,1,4.62,1.64l.4-2.76,1-8.11a1,1,0,0,1,.75-.83,1,1,0,0,1,1.18,1.19c-.19,1.54-2.56,19.55-2.72,21a33.61,33.61,0,0,0-.32,6.82c.22,1.18.8,2,1.86,1.76,3.32-.71,4.77-5.29,6-10.86a1.15,1.15,0,0,1,.81-.79,1.37,1.37,0,0,1,.39,0A1,1,0,0,1,68.46,81.65ZM57.17,80.2c.22-1.13.36-2.19.53-3a1.27,1.27,0,0,0,0-.35c-.52-2.26-1.83-3.37-3.62-3-4.22,1.06-6.17,12.5-5.36,17.42.41,2.18,1.09,3.53,2.47,3.23C54.92,93.67,56.26,85.65,57.17,80.2Z"/><path d="M84.36,78.25a1.41,1.41,0,0,1,0,.41c-.33,3.94-2.57,8.13-5.8,8.82a4.37,4.37,0,0,1-3.48-.65c-1.65,3.75-2.76,5.28-4.74,5.7-2.31.49-3.64-1-4.09-3.45-.59-3.17.62-9.35,2-19.9a1,1,0,1,1,2,.35c-1.81,12.74-2.41,17.25-2.06,19.13.26,1.44.75,2,1.76,1.79,1.62-.35,2.89-3,3.59-5.25a8.62,8.62,0,0,1-.92-4.69,1,1,0,0,1,.77-1,1.05,1.05,0,0,1,1.22,1.13c0,.41,0,.88,0,1.23.34-1,3.49-13.21,3.88-15a1.16,1.16,0,0,1,.82-.79,1.25,1.25,0,0,1,.43,0,1.19,1.19,0,0,1,.74.87,2.48,2.48,0,0,1,0,.47c-.93,3.8-4.06,15.64-4.65,17.37a2.81,2.81,0,0,0,2.41.56c2.44-.52,4-4.14,4.19-7.12a.89.89,0,0,1,.76-.83,1.25,1.25,0,0,1,.43,0A1,1,0,0,1,84.36,78.25Z"/><path d="M99,75.17a1.2,1.2,0,0,1,0,.42c-1.68,7.77-4.58,11.79-9.23,12.79-3.83.82-6.64-1.42-7.3-5.5-.9-6.4,2-17.73,7.43-18.89,2.3-.5,4.16.45,4.6,2.83,1,5.25-5.31,9.89-10.18,12.32a15.28,15.28,0,0,0,.1,3.38c.43,2.84,2.22,4.26,5,3.77,3.8-.71,6.22-4.22,7.61-11.16a1.07,1.07,0,0,1,1.2-.82A1.15,1.15,0,0,1,99,75.17Zm-6.46-7.94c-.25-1.34-1.26-1.38-2.28-1.16-3.18.68-4.9,6.4-5.66,10.53C88.17,74.5,93.21,70.9,92.53,67.23Z"/><path d="M117.37,71.19a1.43,1.43,0,0,1,0,.46c-1.75,8.15-3.37,11.54-6.51,12.21-2.21.47-3.64-1-4.09-3.45-.86-4.66,1.67-11.17.87-15.48-.26-1.44-1.07-2.45-2.87-2.07-2.81.6-5.08,8-5.77,12.57l-1.41,10.5a1,1,0,1,1-2-.25c1.08-7.65,2.32-17.24,3.14-22.92a1,1,0,0,1,.79-.89,1,1,0,0,1,1.18,1.19l-.19,1.07c1.07-1.78,2.32-3,3.84-3.35,3.32-.71,4.71,1.11,5.2,3.73.82,4.41-1.58,11.67-.87,15.49.26,1.43.8,2,1.77,1.78,2.16-.46,3.34-3.44,4.94-10.59a1.06,1.06,0,0,1,.76-.83,1.25,1.25,0,0,1,.43,0A1.06,1.06,0,0,1,117.37,71.19Z"/><path d="M127,69.14a1.43,1.43,0,0,1,0,.46c-1.53,6.77-3.33,11.53-7.57,12.44-2.21.47-3.74-1.06-4.18-3.44-.34-1.83,0-6.39.74-10.76l1-7.59-2.9.62a1,1,0,0,1-1.16-.83,1.07,1.07,0,0,1,.77-1.25l3.55-.76c.06-.22,1-7.69,1-7.89a1,1,0,0,1,.79-.9,1,1,0,0,1,1.18,1.2c.08-.33-.78,6.14-.93,7.15l3.09-.66a1,1,0,0,1,1.16.83,1,1,0,0,1-.78,1.25l-3.78.8c-.1,1-.46,3.45-1.13,8.39-.82,6.15-1,8.55-.74,10s.94,2,1.87,1.77c3.32-.71,4.77-5.3,6-10.87a1.17,1.17,0,0,1,.81-.79,1.24,1.24,0,0,1,.43,0A1.1,1.1,0,0,1,127,69.14Z"/><path d="M145.45,65.18a1.49,1.49,0,0,1,0,.47c-1.63,8-3.38,11.53-6.47,12.19-2,.44-3.29-.68-4-2.8-1,2.31-2.8,4.25-4.88,4.7h0c-2.91.62-4.76-.84-5.38-4.21-.46-2.47.1-5.63,2.24-18.92a1,1,0,0,1,.76-.83A1,1,0,0,1,128.88,57c-2.3,15-2.62,16.17-2.25,18.15s1.45,2.88,3.11,2.53c1.89-.41,3.47-2.5,4.36-6.19s1.71-9.43,2.8-17a1,1,0,1,1,2,.35c-.48,3.09-.86,5.95-1.18,8.08-.81,5.48-1.13,9.72-.88,11.06s.8,2,1.77,1.78c2.21-.47,3.49-3.68,4.94-10.58a1,1,0,0,1,.76-.83,1.25,1.25,0,0,1,.43,0A1.11,1.11,0,0,1,145.45,65.18Z"/><path d="M162.41,61.55a1.49,1.49,0,0,1,0,.47c-1.63,8-3.37,11.53-6.51,12.21h0c-2.17.46-3.6-1-4-3.47a12.53,12.53,0,0,1-.13-3.31c.07-1.67.88-8.69,1.09-9.87a31.48,31.48,0,0,1-5.39-.91c-.07.64-.27,1.4-2.35,10.86a1,1,0,0,1-.72.77,1.29,1.29,0,0,1-.48,0,1.12,1.12,0,0,1-.73-.82,1.86,1.86,0,0,1,0-.47l2.09-9.41.28-1.6a5,5,0,0,1-3.12-3.66,3.08,3.08,0,0,1,2.22-3.82c1.66-.36,2.91.71,3.28,2.69a12.51,12.51,0,0,1-.15,3.33,33.72,33.72,0,0,0,4.51.84c.69.06,1.32.13,1.87.22a1.13,1.13,0,0,1,.81,1.32c-.29,1.76-1.19,9.32-1.24,10.62a13.29,13.29,0,0,0,.09,2.81c.23,1.24.75,2,1.77,1.78,2.26-.48,3.5-3.63,4.94-10.58a1,1,0,0,1,.76-.83,1.25,1.25,0,0,1,.43,0A1,1,0,0,1,162.41,61.55ZM145,50.61a.87.87,0,0,0-.7,1.13,3.13,3.13,0,0,0,1.53,2,9.07,9.07,0,0,0,.12-2.19C145.74,50.75,145.32,50.53,145,50.61Z"/><path d="M177,58.47a1.5,1.5,0,0,1,0,.42c-1.68,7.78-4.58,11.79-9.23,12.79-3.83.82-6.64-1.41-7.3-5.49-.9-6.4,2-17.74,7.43-18.9,2.3-.49,4.16.45,4.6,2.83,1,5.25-5.31,9.89-10.18,12.32a15.28,15.28,0,0,0,.1,3.38c.43,2.84,2.22,4.26,5,3.77,3.8-.71,6.22-4.21,7.61-11.16a1.07,1.07,0,0,1,1.19-.82A1.15,1.15,0,0,1,177,58.47Zm-6.46-7.94c-.25-1.34-1.26-1.38-2.28-1.16-3.18.68-4.9,6.41-5.67,10.54C166.22,57.8,171.26,54.2,170.58,50.53Z"/><g class="cls-4"><path d="M74.7,94.93c.07.38.16.78.27,1.19s.22.82.33,1.21a8.41,8.41,0,0,1,.22,1.18,4,4,0,0,1,0,1c-4.12,1-8.24,2-12.36,3.12a3.15,3.15,0,0,0-.19,1.2,8.25,8.25,0,0,0,.13,1.38c.08.47.17.94.28,1.41s.19.91.26,1.3a12.3,12.3,0,0,0,2.57-.36c.92-.22,1.87-.47,2.85-.76s2-.59,3-.87a23.13,23.13,0,0,1,3-.65,5.5,5.5,0,0,1,.39,1,12.65,12.65,0,0,1,.3,1.25,9.39,9.39,0,0,1,.15,1.26,5.48,5.48,0,0,1,0,1.09Q70.39,111.36,65,113a5.88,5.88,0,0,0,0,2.4c.16.81.37,1.63.61,2.45s.45,1.66.63,2.51a7.16,7.16,0,0,1,0,2.57,4.72,4.72,0,0,1-1.17.51l-1.29.32c-.44.1-.89.22-1.36.35a6.19,6.19,0,0,0-1.41.62c-.27-2.12-.6-4.28-1-6.47s-.8-4.39-1.21-6.58-.76-4.33-1.08-6.43-.54-4.1-.67-6q4.53-1.21,9.06-2.47A72.77,72.77,0,0,1,74.7,94.93Zm-16.54,6.2.39-.11a.83.83,0,0,0-.12-.38s-.16,0-.34,0Zm.73-.67c.07.4.12.6.16.6s.05-.06,0-.18a2,2,0,0,0-.07-.4C59,100.35,58.94,100.34,58.89,100.46Zm.32,2.94a.34.34,0,0,0-.19.41,3.82,3.82,0,0,0,.52-.18c.14-.07.19-.2.15-.4A3.06,3.06,0,0,0,59.21,103.4Zm-.05,1.2.42-.12-.07-.37-.42.11Zm.45-1.82a.92.92,0,0,0-.09-.35s-.13,0-.29,0a.81.81,0,0,0,.07.22A.25.25,0,0,0,59.61,102.78Zm-.1-2.92c0,.2.13.29.29.29a2.58,2.58,0,0,0,.52-.07l-.07-.42c-.22-.12-.35-.14-.39,0A.48.48,0,0,1,59.51,99.86Zm.56,7.47a6.35,6.35,0,0,0-.18-.68c-.08-.25-.2-.25-.38,0a1.1,1.1,0,0,0,.12.38A2.41,2.41,0,0,0,60.07,107.33Zm-.1-2.49c.09,0,.14-.06.15-.1a.15.15,0,0,0,0-.11s-.06,0-.09,0S60,104.74,60,104.84Zm0-2.17c.12.18.21.23.25.17a.44.44,0,0,0,0-.24.35.35,0,0,0-.11-.21C60.11,102.35,60.06,102.45,60,102.67Zm.14.83c-.06.22-.06.32,0,.29a.41.41,0,0,0,.16-.18.51.51,0,0,0,.09-.24C60.39,103.3,60.31,103.35,60.14,103.5Zm.1,3a2.18,2.18,0,0,0,.52-.21.37.37,0,0,0,.18-.42l-.77.22C60.2,106.18,60.22,106.31,60.24,106.45Zm.07-4.29.35-.1-.07-.37-.34.09Zm.18,3.36.38-.11c0-.2-.07-.31-.11-.32a.74.74,0,0,0-.34,0Zm0-4.21.38-.1-.07-.41-.38.1Zm0,8.81c.1.18.18.26.22.25s.07-.06,0-.13a.35.35,0,0,0-.1-.21C60.66,110,60.6,110,60.55,110.12Zm.8,2.73a4.78,4.78,0,0,0-.48.19.35.35,0,0,0-.19.41,3,3,0,0,0,.52-.2A.34.34,0,0,0,61.35,112.85Zm-.62-3.6c.18-.06.22-.12.11-.19S60.69,109.05,60.73,109.25Zm.16,2.88c.11.18.18.24.22.17a.31.31,0,0,0,0-.24c0-.1,0-.17-.11-.2S60.93,111.91,60.89,112.13Zm.19-5.49.35-.1-.07-.41-.35.1Zm.14.78.35-.1-.08-.41-.34.1Zm.07-1.7.38-.11-.07-.41-.38.11Zm0,4.19c.12.1.19.11.23,0a.29.29,0,0,0,0-.22c0-.07,0-.12-.09-.13S61.3,109.69,61.24,109.91Zm.14,5c.09.08.15.08.19,0a.42.42,0,0,0,0-.22c0-.08,0-.11-.09-.11S61.42,114.73,61.38,115ZM62,104.71c0-.13-.05-.27-.08-.41l-.41.12.07.41Zm-.3,11.83c.1.18.17.23.21.17a.35.35,0,0,0,0-.25.25.25,0,0,0-.11-.2S61.69,116.32,61.66,116.54Zm1.39,3.75a2.09,2.09,0,0,1-.52-.43c-.12-.15-.37-.17-.74,0,.07.41.21.63.42.63A2.37,2.37,0,0,0,63.05,120.29Zm-1.24-13.86c.13.17.22.22.27.16a.35.35,0,0,0,.05-.25.27.27,0,0,0-.13-.2C61.93,106.11,61.87,106.2,61.81,106.43Zm.51,5.27-.06-.37-.35.1.06.37Zm.21,1.18c.39-.12.57-.32.52-.59s-.27-.35-.66-.22C62.43,112.34,62.48,112.61,62.53,112.88Zm.37,6.57c.12.09.19.09.23,0a.46.46,0,0,0,0-.23q0-.1-.09-.12C63,119.11,63,119.22,62.9,119.45Zm.15-5.88c.11.07.19.06.24,0a.4.4,0,0,0,0-.29.31.31,0,0,0-.13-.23c-.07,0-.14,0-.22.13Zm.87-2c0-.2-.13-.28-.28-.26a4.06,4.06,0,0,0-.52.11c0,.2.13.29.29.27A3.06,3.06,0,0,0,63.92,111.6Zm-.38,4.77-.38.12c-.06.22,0,.37,0,.43a.25.25,0,0,0,.26,0,.34.34,0,0,0,.21-.2c0-.1,0-.24-.13-.4.19-.06.28-.13.29-.21a.18.18,0,0,0-.06-.18.17.17,0,0,0-.18,0C63.52,116.05,63.51,116.17,63.54,116.37Zm0,4.16.34-.12-.06-.36-.35.11Zm.21-.89.38-.12-.08-.44-.38.13Zm.65-19c.13.17.2.23.23.17a.38.38,0,0,0,0-.24.29.29,0,0,0-.09-.2S64.42,100.47,64.36,100.69ZM64.62,111l.39-.12-.07-.36-.38.11Zm.65,10.59c-.28.09-.45.19-.5.29s-.06.16,0,.19.14,0,.25,0A.65.65,0,0,0,65.27,121.6Zm-.43-.32.35-.11-.06-.33-.34.11ZM65.22,110c.13.17.2.22.23.17a.38.38,0,0,0,0-.24.25.25,0,0,0-.09-.2S65.28,109.8,65.22,110Zm.09-10.77.35-.09-.08-.44-.34.08Zm.46,11.81.38-.12c0-.19-.07-.3-.11-.31s-.15,0-.34.06Zm.25-.85c.13.17.21.22.23.15a.55.55,0,0,0,0-.26.27.27,0,0,0-.09-.18S66.08,110,66,110.21Zm.33-11.68.39-.1-.07-.4-.39.09Zm.6,1.11a2.79,2.79,0,0,0,.49-.18.33.33,0,0,0,.17-.4l-.73.18Zm.17-1.3c.13.17.21.24.24.22s0-.06,0-.14a.37.37,0,0,0-.09-.19S67.2,98.21,67.12,98.34Zm.64,10.53.39-.1-.07-.37-.38.11Zm.84.19L69,109a.69.69,0,0,0-.12-.33s-.15,0-.34,0Zm2,.25q0-.15-.06-.33a1.26,1.26,0,0,0-.09-.31.39.39,0,0,0-.14-.18c-.06,0-.12,0-.2.15a1.08,1.08,0,0,0,.11.37A1.5,1.5,0,0,0,70.59,109.31Zm-.12-11.79c.12.1.19.11.22,0a.41.41,0,0,0,0-.27A.46.46,0,0,0,70.6,97c-.06-.06-.12,0-.2.08Zm.26,12.58.38-.11c0-.14,0-.29-.08-.43l-.38.11C70.68,109.81,70.7,110,70.73,110.1Zm.34-11.47.38-.09-.07-.4-.38.09Zm.13.72.38-.09-.06-.36-.39.09Zm.44,9.29a2.46,2.46,0,0,0,.53-.2.34.34,0,0,0,.17-.4l-.77.2Zm.28-.9.35-.1-.07-.36-.35.1Zm.65-9.47q.2.26.24.15a.38.38,0,0,0,0-.24.28.28,0,0,0-.11-.18S72.63,98.05,72.57,98.27Zm.15,9.67.39-.11c0-.13,0-.26-.07-.39l-.39.1Zm.56-1.39-.31.53a.18.18,0,0,0,.17-.08A.4.4,0,0,0,73.28,106.55Zm-.19-9.64.39-.09-.07-.4-.39.09Zm.15,11.68.38-.1-.06-.36-.38.1Zm.13.39a.71.71,0,0,0,0,.39c.05,0,.11,0,.17-.08a.4.4,0,0,0,.14-.45C73.5,108.89,73.39,108.94,73.37,109Zm.32-11,.38-.09-.07-.4-.38.09Z"/><path d="M81.79,93.76a4,4,0,0,0,1.14-.13l1.12-.31a9.16,9.16,0,0,1,1.14-.22,3.22,3.22,0,0,1,1.18.11,22.54,22.54,0,0,1,.95,3.61q.38,2,.66,4.05c.19,1.37.41,2.7.65,4a21.91,21.91,0,0,0,1,3.6,12.84,12.84,0,0,0,1.19,1.13,5.5,5.5,0,0,0,1.44.86,5,5,0,0,0,1.78.35,6.31,6.31,0,0,0,2.22-.38,4.28,4.28,0,0,0,2.25-1.81,6.36,6.36,0,0,0,.79-2.76,14.21,14.21,0,0,0-.23-3.42c-.22-1.23-.49-2.5-.82-3.78s-.65-2.58-1-3.86a27.09,27.09,0,0,1-.69-3.59,8.69,8.69,0,0,1,1.2-.44c.45-.13.9-.24,1.37-.33s.93-.14,1.39-.18a9.88,9.88,0,0,1,1.32,0c.28,1.49.6,3,1,4.52s.68,3,1,4.52.51,2.94.65,4.33a17,17,0,0,1,0,3.91,9.39,9.39,0,0,1-1,3.28,6.68,6.68,0,0,1-2.36,2.46,3.78,3.78,0,0,1-.81.62c-.3.16-.61.32-.93.46l-1,.42a7.84,7.84,0,0,0-.87.44,12.37,12.37,0,0,1-4.34.76,13.48,13.48,0,0,1-3.43-.52,6.21,6.21,0,0,1-2.57-1.66A11.73,11.73,0,0,1,85.23,111a21.84,21.84,0,0,1-1.39-3.62c-.39-1.33-.73-2.73-1-4.19s-.52-3-.72-4.47-.41-3-.63-4.48a.6.6,0,0,1,0-.19C81.5,93.89,81.6,93.8,81.79,93.76ZM83.1,99l.42-.09-.06-.35-.42.09Zm1.66-3.86a.64.64,0,0,1-.05.34,3.18,3.18,0,0,0-.11.38.52.52,0,0,0,0,.31c0,.08.15.09.34.06a7.24,7.24,0,0,0,.41-.71,1.49,1.49,0,0,0,.08-1,.38.38,0,0,0-.34.29.43.43,0,0,1-.35.29c-.05-.26-.09-.52-.14-.78a3,3,0,0,1-.67.44.85.85,0,0,1-.45-.2,1.14,1.14,0,0,1,.45.69c.08.31.14.56.17.75a.65.65,0,0,0,.12-.37c0-.14,0-.25,0-.35a.24.24,0,0,1,.1-.21A.6.6,0,0,1,84.76,95.11Zm-.54,4.71q.23-.06.18-.33c0-.19-.18-.26-.42-.2s-.35.17-.32.36A.76.76,0,0,0,84.22,99.82Zm-.07.49a.56.56,0,0,0-.07-.17.33.33,0,0,0-.35-.1c-.08.21-.08.36,0,.43a.41.41,0,0,0,.28.12.24.24,0,0,0,.22-.08C84.29,100.45,84.26,100.38,84.15,100.31Zm-.28-1.51.39-.08-.07-.35-.38.08Zm0,4.35c.06.37.13.54.2.5a.46.46,0,0,0,.13-.29.71.71,0,0,0,0-.39C84.12,102.86,84,102.92,83.87,103.15ZM84.75,97l-.77.17a.5.5,0,0,0,.19.36c.1.05.08.19,0,.41.4-.09.61-.22.64-.4a1.64,1.64,0,0,0,0-.54c.09,0,.12-.06.07-.12a.56.56,0,0,0-.16-.15s-.09,0-.11,0S84.6,96.88,84.75,97Zm-.19,5.55a.63.63,0,0,0-.1-.27,1,1,0,0,0-.17-.22l-.22-.2a4,4,0,0,0,.14.53C84.26,102.58,84.38,102.63,84.56,102.59Zm.41,2.23-.13-.73-.77.18c.05.24.09.49.14.73Zm0-2.32a1.47,1.47,0,0,0,.26-.64,1.5,1.5,0,0,1,.3-.65c-.26.15-.44.21-.55.16a.45.45,0,0,1-.23-.24,2,2,0,0,0-.15-.33c0-.11-.18-.15-.36-.11a.58.58,0,0,0,.06.52,4,4,0,0,0,.3.39c.11.12.21.25.31.38A.58.58,0,0,1,85,102.5Zm.22-3.18c0-.26-.1-.51-.14-.77a4,4,0,0,1-.35.42.81.81,0,0,1-.35.13,2.41,2.41,0,0,0,.42.25.93.93,0,0,0,.42,0,3.4,3.4,0,0,0,.42.25.91.91,0,0,0,.38,0,4,4,0,0,0,0-.7c0-.17,0-.32,0-.45a1,1,0,0,1,.08-.38,3.68,3.68,0,0,1,.3-.52c-.18,0-.31,0-.38-.1a.8.8,0,0,1-.07-.2l-1.12.24a.93.93,0,0,1,.21.35.17.17,0,0,1,0,.16l-.2.11a.8.8,0,0,0-.25.24.49.49,0,0,0,.31.1l.25,0,.18,0s.08,0,.1.14a.63.63,0,0,0,.1.27,1.07,1.07,0,0,1,.1.23.25.25,0,0,1-.06.2A.68.68,0,0,1,85.17,99.32Zm-.39,4.42a.38.38,0,0,0,.06.17c.07.1.2.13.38.09a2.73,2.73,0,0,0-.14-.51.3.3,0,0,0-.38-.17Zm0,2.82c.15.1.3,0,.46-.2a.43.43,0,0,1,.24.51,1,1,0,0,0,0,.57.9.9,0,0,1,.59.08,1,1,0,0,0,.64.07,2.33,2.33,0,0,0-.44-.37,2.56,2.56,0,0,1-.33-.25.41.41,0,0,1-.15-.28,1.12,1.12,0,0,1,.22-.5.47.47,0,0,0-.51,0,.53.53,0,0,0-.22.2.38.38,0,0,0-.24-.31h-.18l.73-.17c0-.25-.09-.49-.13-.74a.77.77,0,0,0-.47.35.73.73,0,0,0-.13.56C84.66,106.29,84.65,106.46,84.8,106.56Zm1-5.81.07.38.77-.17.07.35q-.12.21-.15.18a.38.38,0,0,1-.09-.09.31.31,0,0,0-.16-.09c-.08,0-.2,0-.37.17a.71.71,0,0,0,.34.49.79.79,0,0,0,.57.11c.15-.23.22-.37.21-.43s-.13-.17-.35-.34q.27-.06.24-.24c0-.11-.12-.15-.31-.11a1.85,1.85,0,0,0,.09-.42.41.41,0,0,0,0-.19l-.13-.17a1,1,0,0,1-.12-.37c-.4.09-.75.18-1.06.28s-.44.26-.41.44.14.28.31.28A2.53,2.53,0,0,0,85.79,100.75Zm-.4-6.57a.61.61,0,0,1-.2.2l-.12,0s0,0,0,0l0,.16.17-.08A.3.3,0,0,0,85.39,94.18Zm-.21,13.76.35-.08-.07-.42-.35.09Zm.56-4.38a.44.44,0,0,0,0-.3.71.71,0,0,0-.15-.33c-.08-.11-.17-.15-.26-.12,0,.25.09.51.14.76C85.62,103.65,85.7,103.64,85.74,103.56Zm-.32-7c0,.18.06.25.09.19a.6.6,0,0,0,0-.22.45.45,0,0,0,0-.22S85.48,96.33,85.42,96.54ZM86.76,106c0,.09,0,.16-.15.2l-.34.13a.58.58,0,0,0-.25.21c-.06.08,0,.21.11.37l.77-.18a1.17,1.17,0,0,1,0-.44A.7.7,0,0,1,87,106a1.38,1.38,0,0,0,.1-.22.47.47,0,0,0,0-.24l-.74.17a.68.68,0,0,0,.07.2A.29.29,0,0,0,86.76,106Zm-.48-2.61a.25.25,0,0,0,.28,0,.35.35,0,0,0,.12-.25.53.53,0,0,0-.12-.32.76.76,0,0,0-.42-.23.31.31,0,0,1,0,.22l-.06.16a.3.3,0,0,0,0,.18A.43.43,0,0,0,86.28,103.4Zm.26,5.78a.34.34,0,0,1-.11.36l-.17.08a.13.13,0,0,1,.18.08,1.67,1.67,0,0,1,.06.26,1.82,1.82,0,0,0,.07.25.14.14,0,0,0,.18.09l-.21-1.12a.75.75,0,0,0,.38-.16.45.45,0,0,0,.12-.21,1,1,0,0,0,0-.26.51.51,0,0,1,.1-.31c0,.18.14.27.3.25a3.71,3.71,0,0,0,.54-.08l.07.41.39-.09a.75.75,0,0,0-.12-.35s-.16,0-.34,0l-.07-.35c0-.19-.2-.2-.5,0a3.63,3.63,0,0,1-1,.39C86.45,108.67,86.5,108.93,86.54,109.18Zm.21-1.24.35-.08a.33.33,0,0,1,.12-.36.7.7,0,0,1,.2-.08.35.35,0,0,1-.4-.12.36.36,0,0,0-.41-.13C86.66,107.43,86.7,107.68,86.75,107.94Zm.9,2.9c0,.19.1.29.19.3a.73.73,0,0,0,.32,0,1.75,1.75,0,0,1,.4,0,.58.58,0,0,1,.39.25c-.22-.14-.29-.25-.21-.35a.48.48,0,0,0,.07-.41,2.31,2.31,0,0,1-.47.06l-.29,0a.6.6,0,0,0-.2,0,.81.81,0,0,0-.2.21l-.06-.35-.77.19c0,.18.13.27.3.25A2.56,2.56,0,0,0,87.65,110.84Zm.25-.82c0,.13,0,.26.07.38l.39-.09c0-.18-.07-.29-.11-.31s-.16,0-.35,0l-.07-.38a1.65,1.65,0,0,1-.34,0,1.19,1.19,0,0,0-.34,0,.24.24,0,0,0-.17.15c0,.08,0,.2.19.36Zm-.85-6.79c.13.16.19.22.19.17a.39.39,0,0,0,0-.21.44.44,0,0,0-.13-.18S87,103,87.05,103.23Zm.1,2.69.06.35.38-.09.39-.08-.07-.35-.38.09Zm.13.74c-.06.2-.06.31,0,.32a.21.21,0,0,0,.18-.08.28.28,0,0,0,.09-.2C87.56,106.63,87.47,106.61,87.28,106.66Zm.1,2.69.38-.09-.06-.35-.39.09Zm.13,2.72c-.11,0-.17.06-.18.1a.07.07,0,0,0,0,.08.14.14,0,0,0,.11,0s0-.08,0-.17q.28-.06.3-.18a.14.14,0,0,0-.07-.16.15.15,0,0,0-.18,0C87.5,111.77,87.48,111.89,87.51,112.07Zm.3-4.74-.39.09q.28-.06.36.06T87.81,107.33Zm.79,2.13.14.76c.21,0,.35,0,.42-.11a.57.57,0,0,0,.07-.4.48.48,0,0,0-.2-.33c-.12-.08-.26,0-.43.08,0-.13,0-.25-.07-.38l-.38.09c0,.19.07.29.11.32A.75.75,0,0,0,88.6,109.46Zm-.35,2.43c-.06.21,0,.35,0,.43a.23.23,0,0,0,.21.1c.07,0,.1-.08.1-.17S88.47,112,88.25,111.89Zm.73,1.75.38-.09-.06-.35-.39.09Zm.45-1.66c.16-.23.17-.34,0-.34a3.72,3.72,0,0,0-.46.07l.06.35Zm-.28.46c.13.16.21.22.24.16a.39.39,0,0,0,0-.22.34.34,0,0,0-.09-.19S89.21,112.23,89.15,112.44Zm.5.68.77-.19a3.27,3.27,0,0,0-.15-.5.29.29,0,0,0-.38-.16c.11.06.14.12.08.16l-.21.12a.57.57,0,0,0-.22.19C89.48,112.83,89.52,113,89.65,113.12Zm-.11-2.72c.13.16.21.21.25.16a.29.29,0,0,0,0-.23.25.25,0,0,0-.11-.19S89.6,110.19,89.54,110.4Zm.6,1,.38-.09-.07-.38-.38.09Zm.59,1c.19,0,.28-.15.27-.32s0-.34-.06-.53l-.74.18a.39.39,0,0,0,.27.33A.37.37,0,0,1,90.73,112.47Zm.76,2.12a.55.55,0,0,0-.31-.4c-.17-.07-.34,0-.49.23l.07.34Zm.05-1.92-.74.17a1.25,1.25,0,0,1,0,.34,1.57,1.57,0,0,0,0,.38.45.45,0,0,0,.15.27c.07.07.2.08.39,0a2.38,2.38,0,0,1-.08-.72,1.65,1.65,0,0,1,.26-.48l.38-.09c-.22-.14-.28-.3-.18-.49a.63.63,0,0,1,.42-.35c-.22-.14-.35-.16-.41,0a.5.5,0,0,1-.36.23l-.07-.38C91.39,111.92,91.47,112.29,91.54,112.67Zm1.11,1.65.35-.08a.33.33,0,0,0-.24-.27.51.51,0,0,0-.18,0l-.07-.38a1.32,1.32,0,0,0-.37.16,1.92,1.92,0,0,0-.39.27.45.45,0,0,0-.17.27c0,.09.09.15.3.2a.29.29,0,0,1,.18-.37,4,4,0,0,1,.52-.15Zm-.2-1.07-.08-.41c0-.09-.07-.13-.15-.11a.67.67,0,0,0-.25.13,1,1,0,0,0-.22.27.39.39,0,0,0-.07.3Zm-.19,1.16a.65.65,0,0,0-.32.13.75.75,0,0,0,0,.37c0-.09,0-.15,0-.18a.2.2,0,0,1,.13-.07.46.46,0,0,0,.14,0S92.28,114.53,92.26,114.41Zm.25-1.92a.57.57,0,0,0,0-.26.41.41,0,0,0-.09-.21s-.11,0-.18.1l.07.38C92.42,112.57,92.48,112.56,92.51,112.49Zm.47,1.38a.77.77,0,0,0,.07-.25.56.56,0,0,0,0-.3c0-.07-.09,0-.15.2S93,113.91,93,113.87Zm.16-1.2.35-.08-.06-.35-.35.08Zm.81.24-.38.09.06.34.32-.43.35-.08-.07-.41a.32.32,0,0,0-.28.28A.74.74,0,0,0,94,112.91Zm.19-.67a.1.1,0,0,1-.09,0,.1.1,0,0,1,0-.09s.06-.06.15-.08S94.17,112.22,94.14,112.24Zm.15,2.49.29-.42-.21-1.13a1,1,0,0,0-.21.65C94.18,114,94.22,114.34,94.29,114.73Zm1.06-.59a1.37,1.37,0,0,1,0-.36,1.64,1.64,0,0,0,0-.39.5.5,0,0,0-.14-.27.44.44,0,0,0-.39,0c0,.18.09.42.16.7S95.16,114.18,95.35,114.14ZM95.14,113a.49.49,0,0,1,.41,0l.25.19a1.53,1.53,0,0,0,.34.18,1.28,1.28,0,0,0,.64,0,3.19,3.19,0,0,0-.45-.45,1.79,1.79,0,0,0-.5-.3.56.56,0,0,0-.42,0A.55.55,0,0,0,95.14,113Zm.28,1.48c-.08.11-.1.13,0,.06l.16-.23a1.17,1.17,0,0,0,.1-.15Zm.38-.09a.87.87,0,0,0,.46-.28,1.1,1.1,0,0,0,.21-.22,4.39,4.39,0,0,0-.5.14A.29.29,0,0,0,95.8,114.39Zm.39-2c0,.19.07.25.09.2a.49.49,0,0,0,0-.23.44.44,0,0,0,0-.21S96.25,112.21,96.19,112.41Zm.25-.83c-.06.2-.06.29,0,.26a.32.32,0,0,0,.17-.16.37.37,0,0,0,.09-.21C96.69,111.41,96.61,111.44,96.44,111.58Zm.77,2.15a.38.38,0,0,1-.22,0l-.16-.07a.14.14,0,0,0-.16,0,.74.74,0,0,0-.2.22c0,.18.17.24.42.19S97.24,113.91,97.21,113.73Zm2.31-4.34-.35.07.14.72c-.21-.05-.34,0-.39,0a.49.49,0,0,0-.09.3,2,2,0,0,0,0,.35c0,.12,0,.19-.13.21s-.18,0-.2,0a.39.39,0,0,1,0-.14.2.2,0,0,0-.06-.12.22.22,0,0,0-.19,0,.45.45,0,0,1-.07.41c-.08.08,0,.19.21.31-.19,0-.31,0-.36-.16a4.09,4.09,0,0,1-.13-.48c-.19,0-.3.11-.34.21s-.17.09-.39-.06a1.56,1.56,0,0,0,.23,1.36,1.19,1.19,0,0,0,1.2.26,1.21,1.21,0,0,0-.37.18,1.7,1.7,0,0,1-.43.24.32.32,0,0,1-.33,0c-.08-.06-.09-.25,0-.55-.38.18-.55.31-.51.4a.77.77,0,0,0,.31.26,3.15,3.15,0,0,1,.48.3c.15.12.15.29,0,.52a.41.41,0,0,0,.34-.31c0-.16.09-.32.13-.47a.72.72,0,0,1,.25-.36c.11-.08.33-.06.64.06l-.06-.34-.42.09-.21-1.13q.26-.19.27-.09a.72.72,0,0,1,0,.28,1.09,1.09,0,0,0,0,.36c0,.12.12.15.31.11a.27.27,0,0,0,0-.29,1.68,1.68,0,0,1-.08-.24.21.21,0,0,1,.09-.19,1.53,1.53,0,0,1,.53-.18c-.07-.37-.13-.73-.2-1.1.18,0,.27-.13.27-.29a2.34,2.34,0,0,0-.06-.5c.11.07.19.07.24,0a.39.39,0,0,0,0-.26.29.29,0,0,0-.13-.2c-.07,0-.14,0-.22.09ZM98.6,91.94l-.35.06c-.11.43-.11.63,0,.61S98.49,92.36,98.6,91.94Zm1,1a.25.25,0,0,0-.21-.19,1.13,1.13,0,0,0-.41,0,4.41,4.41,0,0,0-.57.07c-.06.2-.06.33,0,.38a.27.27,0,0,0,.25,0,2.93,2.93,0,0,0,.43-.12A4.11,4.11,0,0,1,99.58,92.93ZM99.4,94.1c-.13-.07-.21-.15-.22-.25a.66.66,0,0,1,0-.24.44.44,0,0,1,.09-.27.82.82,0,0,0-.69.67,2,2,0,0,0,.31,1.36c.19,0,.27-.2.24-.49s-.07-.53-.1-.71Zm-.31,2.37a.33.33,0,0,0,0,.33.43.43,0,0,0,.15.22c.06,0,.09,0,.1-.06a1.2,1.2,0,0,0-.2-.49.43.43,0,0,0,.24-.17,1.35,1.35,0,0,0,.14-.3.47.47,0,0,0,0-.26.14.14,0,0,0-.18-.09.41.41,0,0,1-.11.41A.4.4,0,0,0,99.09,96.47Zm.82,15.1c.29-.1.41-.25.37-.45a.47.47,0,0,0-.61,0,3.58,3.58,0,0,0-.47.62C99.39,111.73,99.63,111.66,99.91,111.57Zm-.57.92a.35.35,0,0,1,0,.21.52.52,0,0,0-.06.16.25.25,0,0,0,0,.17.43.43,0,0,0,.2.21c0-.25-.09-.5-.14-.75a.37.37,0,0,1,.4.09.37.37,0,0,0,.4.09L100,112a2.82,2.82,0,0,0-.49.16A.31.31,0,0,0,99.34,112.49Zm.81-2.09-.77.16c.07.36.23.52.49.46S100.22,110.76,100.15,110.4ZM99.89,99a.92.92,0,0,0,.28.14.69.69,0,0,1,.26.12c.07.06.08.19,0,.39l.77-.15c.06-.2,0-.33,0-.38a.65.65,0,0,0-.28-.12.61.61,0,0,1-.26-.15c-.07-.07-.08-.2,0-.4l-.77.15c.08-.11.08-.18,0-.2a.38.38,0,0,0-.21,0c-.07,0-.1,0-.11.08s.1.08.3.14C99.79,98.8,99.8,98.93,99.89,99Zm-.18.8.74-.15c0-.18-.13-.28-.29-.28a1.94,1.94,0,0,0-.52,0Zm.71-8.56-.73.14a.53.53,0,0,0,.26.39.45.45,0,0,0,.37.09.28.28,0,0,0,.24-.2c0-.11,0-.25-.14-.42.21.06.32.07.34.05s0-.06-.06-.1a.4.4,0,0,0-.19-.07Q100.41,91.1,100.42,91.24ZM99.79,94l.38-.07-.06-.34-.39.07Zm.86,6.73.77-.15c.08-.11.1-.17.06-.17a.47.47,0,0,0-.16,0l-.21,0c-.07,0-.12,0-.14-.13l-.07-.41a1.71,1.71,0,0,0-.45.14,1.74,1.74,0,0,0-.26.16.25.25,0,0,1-.17.06.51.51,0,0,1-.24-.14.82.82,0,0,0,.12.36.31.31,0,0,0,.19.13,1,1,0,0,0,.25,0A.44.44,0,0,1,100.65,100.75Zm-.47-8.68-.35.06a1.12,1.12,0,0,1,0,.32,1.09,1.09,0,0,0,0,.36.5.5,0,0,0,.14.27.42.42,0,0,0,.39,0C100.31,92.78,100.25,92.42,100.18,92.07Zm-.1,18,.35-.07-.07-.38-.35.08Zm.23-15.31c.1,0,.15,0,.15-.08a.14.14,0,0,0,0-.09s0,0,0,0l.18.12a3.43,3.43,0,0,1,0-.56,3.48,3.48,0,0,0,0-.49.61.61,0,0,0-.16-.32.39.39,0,0,0-.39-.07,1.22,1.22,0,0,1,.24.41.94.94,0,0,1,0,.32,2,2,0,0,1,0,.32A2,2,0,0,0,100.31,94.71Zm0,8c.11.07.17.05.19-.06a1.67,1.67,0,0,0,0-.42,2.33,2.33,0,0,0-.14-.47q-.09-.21-.24-.18C100.12,102,100.2,102.36,100.27,102.74Zm-.19,5.36a.41.41,0,0,0,.21.35c.11,0,.08.19-.07.41.19,0,.33-.23.44-.57a2.23,2.23,0,0,0,0-1.06l-.38.08a.82.82,0,0,0,.1.26.5.5,0,0,1,.1.23.15.15,0,0,1-.08.17A.8.8,0,0,1,100.08,108.1Zm.24-15.31.77-.14a.31.31,0,0,0-.31-.29,3.27,3.27,0,0,0-.53,0Zm.17,2.1q0-.23-.18-.18l.08.37A.32.32,0,0,0,100.49,94.89Zm-.15,8.23c.13.16.2.22.23.16a.35.35,0,0,0,0-.21.34.34,0,0,0-.09-.2S100.4,102.92,100.34,103.12Zm.13.72.35-.07-.07-.38-.35.07Zm1,7.45a.85.85,0,0,0,.18-.58c0-.15-.13-.2-.32-.17l.14.75c-.09,0-.16,0-.21-.13l-.13-.33a.52.52,0,0,0-.19-.24c-.09-.06-.21,0-.38.11s-.1.19-.06.25a.94.94,0,0,0,.14.16.7.7,0,0,1,.15.24.75.75,0,0,1,0,.44.92.92,0,0,0,.49-.27A1.15,1.15,0,0,0,101.48,111.29Zm-.67-5.64-.19.11a.36.36,0,0,0-.11.37.61.61,0,0,0,.32-.11S100.85,105.85,100.81,105.65Zm-.29-9.85c.13.17.21.22.23.17a.39.39,0,0,0-.08-.41S100.58,95.6,100.52,95.8Zm.2,6.74s0,0,.1-.12.11-.17.16-.25,0-.06,0,0Zm.08-7.18.38-.07-.06-.34-.38.07Zm.08,14.89c.11.07.19.07.22,0a.55.55,0,0,0,0-.29.94.94,0,0,0-.14-.33.22.22,0,0,0-.24-.12Zm.61-5.09a.68.68,0,0,1,.18.42.56.56,0,0,1-.08.3,1.07,1.07,0,0,1-.2.22.23.23,0,0,0-.08.23l.77-.15a.32.32,0,0,1,0-.22s.06-.12.11-.2a1.07,1.07,0,0,0,.09-.3,1.87,1.87,0,0,0,0-.45.73.73,0,0,1-.2.2.3.3,0,0,1-.16,0l-.18-.06a.44.44,0,0,0-.23,0,.55.55,0,0,0-.38-.25.27.27,0,0,0-.24.09s0,.11.07.16A.8.8,0,0,0,101.49,105.16Zm-.5,3.54.39-.08-.07-.37-.39.07Zm.91-1.32a.55.55,0,0,0,0-.44.36.36,0,0,0-.23-.19,1.2,1.2,0,0,0-.33,0l-.32,0a.37.37,0,0,0,.3.33A1.79,1.79,0,0,1,101.9,107.38Zm-.38.08c-.28.05-.43.14-.44.25a.2.2,0,0,0,.1.24.22.22,0,0,0,.27,0C101.55,107.89,101.57,107.73,101.52,107.46Zm.47-10a.42.42,0,0,1-.42-.11.39.39,0,0,0-.42-.12.19.19,0,0,0,0,.28.63.63,0,0,0,.32.15.72.72,0,0,0,.36,0C102,97.59,102,97.53,102,97.44Zm-.86,12c.12.16.21.24.26.23s.06-.05,0-.12a.34.34,0,0,0-.11-.19C101.27,109.28,101.2,109.31,101.13,109.42Zm.2-13.38.38-.07a.56.56,0,0,0-.07-.17c-.07-.13-.2-.17-.39-.14C101.28,95.79,101.3,95.92,101.33,96Zm.24,3.4c-.19,0-.29.09-.3.16a.14.14,0,0,0,.07.16.15.15,0,0,0,.18,0c.07,0,.08-.14,0-.32a.92.92,0,0,0,.37.14,1,1,0,0,0,.34,0c.1,0,.16,0,.18-.1s0-.12-.12-.19c-.16.22-.26.28-.31.2a1.23,1.23,0,0,1-.12-.37,1.59,1.59,0,0,0-.14-.42c0-.11-.17-.11-.34,0C101.48,99,101.52,99.2,101.57,99.44Zm.13,2.63c.28-.06.43-.14.46-.27a1.27,1.27,0,0,0,0-.39.86.86,0,0,1,0-.39c0-.12.17-.21.45-.26a.93.93,0,0,1,.14.7,2,2,0,0,1-.23.55,2.42,2.42,0,0,0-.19.42c0,.11,0,.19.25.25a.54.54,0,0,1,0-.34s.13-.08.32-.11a4,4,0,0,1-.06-1.09.77.77,0,0,0-.29-.76l-.77.15a1.17,1.17,0,0,1,0,.44,1.55,1.55,0,0,1-.07.31,1.61,1.61,0,0,0-.06.33A2,2,0,0,0,101.7,102.07Zm.1,2.64a.18.18,0,0,0,.06.13c.08,0,.19,0,.32-.21s.1-.18.06-.2a.19.19,0,0,0-.17,0,.4.4,0,0,0-.2.09A.2.2,0,0,0,101.8,104.71Zm.11-1.55.35-.07Zm.48.65q0-.27-.09-.3a.67.67,0,0,0-.32,0,.55.55,0,0,1,.19.17.49.49,0,0,1,0,.1s0,0,0,0Zm0,2,.35-.07a1,1,0,0,0-.11-.35s-.13,0-.32,0Zm-.08,3.81c.13.16.21.21.25.16a.27.27,0,0,0,0-.22.32.32,0,0,0-.11-.19C102.43,109.28,102.38,109.36,102.32,109.57Zm.35-4.29a.51.51,0,0,0,.36-.19.68.68,0,0,0,.08-.36c0-.14,0-.3,0-.49a1.68,1.68,0,0,1,.07-.58.58.58,0,0,0-.4.27,1.34,1.34,0,0,0-.15.48,2.66,2.66,0,0,0,0,.49A2.53,2.53,0,0,0,102.67,105.28Zm.21,3a1.3,1.3,0,0,1,0-.52c0-.16.09-.3.14-.43a1.27,1.27,0,0,0,.08-.34c0-.09,0-.17-.16-.25a.35.35,0,0,0-.23.23,1.42,1.42,0,0,0-.11.44,1.47,1.47,0,0,0,0,.51A.56.56,0,0,0,102.88,108.32Zm-.17-4.92.07.34a.76.76,0,0,0,.41-.21.53.53,0,0,0,.15-.27.32.32,0,0,0-.08-.24.25.25,0,0,0-.23-.08.81.81,0,0,1,0,.22C103,103.28,102.9,103.36,102.71,103.4Z"/><path d="M114.47,87.16c1.17,1,2.33,2,3.48,3l3.47,3.15q1.74,1.59,3.54,3.17c1.19,1.06,2.42,2.06,3.69,3q-.33-1.68-.78-3.54c-.31-1.23-.59-2.47-.83-3.72s-.46-2.47-.61-3.68a16,16,0,0,1-.11-3.43c.77-.13,1.61-.25,2.52-.37a12.32,12.32,0,0,1,2.54-.09q2.22,11.7,4.44,23.53a3.4,3.4,0,0,1-1,.29c-.37.06-.75.11-1.14.14l-1.14.07a8.63,8.63,0,0,0-1,.08q-2.07-1.45-4-3t-3.71-3.22l-3.66-3.27c-1.22-1.09-2.48-2.15-3.79-3.2.47,2.46,1,4.93,1.55,7.41a62.6,62.6,0,0,1,1.23,7.19c-1.78.29-3.55.59-5.33.91-1.47-7.73-2.93-15.44-4.4-23.18a6.48,6.48,0,0,1,2.37-1A10.26,10.26,0,0,1,114.47,87.16Zm-2.3,4.62c-.06-.31-.13-.58-.19-.81a1.27,1.27,0,0,0-.2-.39c-.08-.07-.14,0-.2.18.09,0,.12,0,.08.16a2.57,2.57,0,0,0-.08.4.49.49,0,0,0,.07.38C111.72,91.81,111.89,91.83,112.17,91.78Zm-.28-1.46.39-.07-.08-.37-.38.06Zm.19,3.07.38-.07a.61.61,0,0,0-.11-.32.81.81,0,0,0-.35,0Zm.34-2.39.38-.06-.07-.38-.38.07Zm.36,4.59a.42.42,0,0,1,.11-.22l.19-.22a.5.5,0,0,0,0-.4.47.47,0,0,0-.49.1.87.87,0,0,0-.22.45.64.64,0,0,0,.09.47.39.39,0,0,0,.45.17C112.83,95.78,112.77,95.66,112.78,95.59Zm-.19-5.78.07.38c.19,0,.29-.11.32-.24a.5.5,0,0,0,0-.21l.35-.06-.06-.34c-.19,0-.29.06-.31.09a.7.7,0,0,0,0,.31Zm.33,3.82.38-.07-.07-.38-.39.07Zm.36,6.09c.13.17.21.22.25.17a.26.26,0,0,0,0-.22.28.28,0,0,0-.11-.19S113.34,99.53,113.28,99.72Zm.5-9.73a.68.68,0,0,0-.2.07.31.31,0,0,0-.11.37l.16-.06A.33.33,0,0,0,113.78,90Zm-.29-1.5c.14.19.23.27.29.25s.07-.07.06-.15a.31.31,0,0,0-.13-.19C113.64,88.36,113.57,88.39,113.49,88.49Zm.45,8.41c.2.08.35.08.43,0a.28.28,0,0,0,.09-.26.29.29,0,0,0-.18-.21.43.43,0,0,0-.42.1Zm0-3.84.39-.07-.07-.37-.39.06C113.92,92.81,113.94,92.93,114,93.06Zm.46,6.47-.39.06a1.51,1.51,0,0,1,0,.37,1.51,1.51,0,0,0,0,.37.53.53,0,0,0,.16.27.52.52,0,0,0,.41.05l-.21-1.12.38-.07a.89.89,0,0,0-.08-.64c-.1-.13-.2-.19-.29-.18s-.16.11-.18.26A.91.91,0,0,0,114.42,99.53Zm.11-5.44-.38.06.07.41a.62.62,0,0,0,.33-.11.76.76,0,0,0,0-.36L115,94c0-.09,0-.19-.06-.32a1,1,0,0,0-.11-.32c-.06-.08-.11-.13-.18-.14s-.13,0-.2.14Zm-.07,1.59a.26.26,0,0,0-.16.07.28.28,0,0,0-.12.33l.17-.06A.31.31,0,0,0,114.46,95.68Zm.31-4.7c-.31.06-.49.12-.54.2s-.06.14,0,.18a.32.32,0,0,0,.27,0A.51.51,0,0,0,114.77,91Zm-.5,14c.19,0,.23-.09.12-.16S114.24,104.75,114.27,104.94Zm.11-1.54.38-.06-.07-.38-.38.07Zm.27-13.17a.53.53,0,0,0-.2.07c-.11.06-.14.19-.11.37a.56.56,0,0,0,.17-.07A.29.29,0,0,0,114.65,90.23Zm-.19,11.61.33-.06a1.31,1.31,0,0,0,.33-.09.32.32,0,0,0,.17-.15c0-.06,0-.13-.13-.21l-.77.14Zm.07-3.88.35-.06-.06-.34-.35.06Zm.44-8.17a.19.19,0,0,0,.17-.14.31.31,0,0,0,0-.21.31.31,0,0,0-.2-.12.6.6,0,0,0-.41.16c0,.18.07.29.12.31S114.78,89.82,115,89.79Zm-.35,12.8.39-.07-.08-.41-.39.07Zm0-6.19a.52.52,0,0,1,.5-.28c.19,0,.27-.05.23-.23a2.1,2.1,0,0,0-.55.15A.28.28,0,0,0,114.58,96.4Zm.12,10.79.39-.07c0-.13,0-.25-.08-.38l-.38.07Zm0-10,.38-.07c0-.13,0-.27-.08-.4l-.38.06Zm0-4.64c.12.17.21.24.26.22s.06-.06,0-.13a.3.3,0,0,0-.1-.17C114.84,92.41,114.77,92.44,114.7,92.54Zm.33,8a.8.8,0,0,0-.2.07c-.11.07-.14.19-.11.37,0-.09,0-.14,0-.16l.14,0a.23.23,0,0,0,.13-.06S115.05,100.67,115,100.58Zm-.18-5c.11.08.19.08.23,0a.32.32,0,0,0,0-.25.3.3,0,0,0-.13-.21c-.06-.05-.14,0-.21.09Zm.09,4.6c.11.07.18.08.2,0a.36.36,0,0,0,0-.23.4.4,0,0,0-.09-.22s-.11,0-.18.09Zm.28,3.44a.48.48,0,0,0-.2.07c-.11.06-.15.19-.11.37a.72.72,0,0,0,.32-.11S115.25,103.83,115.22,103.65Zm-.23,5c.12.17.21.23.25.17a.34.34,0,0,0,0-.21.35.35,0,0,0-.11-.2C115.1,108.41,115,108.49,115,108.68Zm.37-4.32a.86.86,0,0,0-.21.07c-.11.07-.14.19-.11.37.19,0,.3-.06.33-.11A.72.72,0,0,0,115.36,104.36Zm-.19-5,.38-.07-.07-.37-.38.06Zm.1-1.57.42-.07-.07-.34-.42.07Zm.19,5,.35-.06-.15-.78-.35.06Zm-.06,3.85.38-.07-.06-.34-.39.07Zm.25-.78.38-.07-.07-.38-.38.07C115.6,105.65,115.62,105.77,115.65,105.9Zm.52-2.37a.33.33,0,0,0,0-.25.36.36,0,0,0-.12-.22s-.12,0-.2.09l.07.37C116.06,103.6,116.14,103.6,116.17,103.53Zm.13-12.81c0-.18-.12-.26-.24-.24s-.18.12-.14.31Zm.14,17.36c0,.19.09.28.16.29a.17.17,0,0,0,.17-.06.17.17,0,0,0,0-.18c0-.06-.15-.08-.34,0l-.07-.37c-.11-.08-.18-.08-.22,0a.38.38,0,0,0,0,.24.43.43,0,0,0,.12.22C116.3,108.21,116.37,108.19,116.44,108.08Zm.18-5.45-.07-.37-.42.07.07.37Zm-.42-10.34c.13.16.21.24.26.22s.06-.07.05-.14a.36.36,0,0,0-.11-.17C116.34,92.15,116.28,92.18,116.2,92.29Zm.09,13.11c.15-.21.27-.28.36-.2a.5.5,0,0,0,.44.06l-.07-.37a2.59,2.59,0,0,0-.55.14A.29.29,0,0,0,116.29,105.4Zm.15-13.93.07.37c.11.08.19.08.22,0a.42.42,0,0,0,0-.25.31.31,0,0,0-.11-.21S116.52,91.36,116.44,91.47Zm.12,2.69.77-.13a2.46,2.46,0,0,0-.16-.54.31.31,0,0,0-.38-.18c.11.08.16.13.14.15a.38.38,0,0,1-.13.1.72.72,0,0,0-.2.17A.52.52,0,0,0,116.56,94.16Zm.39,14.58a.38.38,0,0,0-.17.06c-.11.07-.14.19-.11.37l.17-.06C117,109,117,108.92,117,108.74Zm-.11-2.66.42-.07-.07-.38-.42.07Zm.14.72.42-.07-.08-.38-.42.07Zm.41-14.72-.42.08a.66.66,0,0,0,.2.4c.1.09.19.13.26.11s.11-.07.13-.17a.64.64,0,0,0-.17-.42l.38-.06-.07-.38a.61.61,0,0,0-.32.11S117.36,91.9,117.39,92.08Zm.29,16.15a.48.48,0,0,0-.2.07.31.31,0,0,0-.15.37.58.58,0,0,0,.21-.07A.3.3,0,0,0,117.68,108.23Zm.45-14.34a.51.51,0,0,1-.51.28c-.18,0-.26,0-.22.24,0-.1,0-.15.09-.18a1.7,1.7,0,0,1,.28-.06,1.07,1.07,0,0,0,.27-.09A.15.15,0,0,0,118.13,93.89Zm-.24.82a.48.48,0,0,0-.2.07c-.14.07-.18.19-.15.38a.76.76,0,0,0,.36-.12S117.92,94.89,117.89,94.71Zm.66-.5a.43.43,0,0,0-.17.06.34.34,0,0,0-.11.37.44.44,0,0,0,.17-.06C118.55,94.52,118.59,94.39,118.55,94.21Zm.53.68q.28,0,.21-.42c-.05-.25-.17-.36-.35-.33Zm.74,1.82-.38.06c.18,0,.3,0,.36.08S119.86,96.89,119.82,96.71Zm.17-1.23.43-.63a.78.78,0,0,0,.16-.59l-.8.13Zm.35,1.88.39-.06-.07-.38-.39.07Zm.25-.78.42-.07a.61.61,0,0,0-.11-.32,1,1,0,0,0-.38,0Zm.28,1.47.42-.07-.07-.38-.42.07Zm1.15-.19c-.18,0-.29.06-.32.11s0,.15,0,.33l.17-.06A.31.31,0,0,0,122,97.86Zm-.14-.75c.13.16.21.22.25.17a.26.26,0,0,0,0-.22.28.28,0,0,0-.11-.19S121.94,96.91,121.88,97.11Zm.25-.78c.13.16.21.24.26.22s.06-.06,0-.13a.34.34,0,0,0-.11-.18C122.27,96.19,122.21,96.22,122.13,96.33Zm.18,3c.19,0,.23-.08.11-.16S122.28,99.18,122.31,99.36Zm1-2.88-.73.12c-.08.11-.08.18,0,.22a.38.38,0,0,0,.27,0,.87.87,0,0,0,.34-.12C123.29,96.65,123.33,96.58,123.31,96.48Zm-.75,2.1c.09,0,.14,0,.15-.07a.13.13,0,0,0,0-.1s-.06,0-.09,0S122.54,98.49,122.56,98.58Zm.23-.85.39-.06-.07-.38-.39.07Zm.6,1.07.35-.06-.06-.34-.35.06Zm1.37.94.39-.06-.07-.37-.39.06Zm.56-1.25a.86.86,0,0,0-.21.07c-.1.06-.14.19-.11.37l.17-.06A.33.33,0,0,0,125.32,98.49Zm.19,3.08c-.19,0-.29.09-.3.17a.27.27,0,0,0,.12.24,1,1,0,0,0,.35.21.55.55,0,0,0,.35.07.64.64,0,0,0,0-.39.22.22,0,0,0-.17-.11l-.24,0a.15.15,0,0,1-.15-.15l.38-.06-.07-.38c-.19,0-.3.06-.32.1A.54.54,0,0,0,125.51,101.57Zm.09-1.57.39-.06c0-.18-.07-.29-.12-.32s-.15,0-.34,0Zm1,1.39.08.38c.18,0,.29-.1.31-.22a.74.74,0,0,0,0-.21q.28-.2.3-.33a.44.44,0,0,0-.11-.29,3.07,3.07,0,0,0-.25-.26.5.5,0,0,1-.16-.29l-1.12.17c0,.21.12.34.25.39a2.58,2.58,0,0,0,.42.12l.42.13a.46.46,0,0,1,.25.36Zm-.07,1.54c.23.17.37.25.43.23s.06-.07,0-.14a.44.44,0,0,0-.19-.19C126.71,102.79,126.63,102.82,126.55,102.93Zm.28-.44.39-.06-.07-.34-.38.06Zm.68,1.49a.61.61,0,0,0-.11-.32.63.63,0,0,0-.35,0,.7.7,0,0,0,.08.2C127.2,104,127.32,104,127.51,104Zm.11-16.32.73-.13a2.77,2.77,0,0,1-.07-.69,1.54,1.54,0,0,1,.25-.47,1.38,1.38,0,0,1-.45,0,1.63,1.63,0,0,1-.29-.1l-.21-.1a.35.35,0,0,0-.25,0,2.94,2.94,0,0,0,.17.59l.15.29a.49.49,0,0,1,.06.22A1.8,1.8,0,0,1,127.62,87.66Zm.14.75c.11.08.19.08.22,0a.35.35,0,0,0,0-.25.36.36,0,0,0-.12-.23c-.06,0-.12,0-.2.08ZM128,104.3l.39-.06-.07-.38-.39.06Zm.36-14.82-.38.06.07.38c.19,0,.29-.07.32-.11s0-.15,0-.33c.21.06.35,0,.43,0a.31.31,0,0,0,.09-.29.53.53,0,0,0-.21-.32.52.52,0,0,0-.45-.11C128.27,89,128.32,89.23,128.36,89.48Zm-.17,1.19.39-.06-.07-.38-.39.07Zm0,12.43c.05.28.09.39.12.36a.45.45,0,0,0,.05-.24,1,1,0,0,0,0-.31C128.27,102.82,128.23,102.88,128.17,103.1Zm.59-.9a.84.84,0,0,0-.51.18c-.06.08-.06.15,0,.2s.14,0,.26,0S128.7,102.42,128.76,102.2Zm-.14-.72a.38.38,0,0,0-.17.06c-.11.06-.14.18-.11.37.19,0,.29-.06.31-.1A1.21,1.21,0,0,0,128.62,101.48Zm-.07-8.92c.11.08.18.08.22,0a.42.42,0,0,0,0-.25.31.31,0,0,0-.11-.21c-.06,0-.12,0-.2.09Zm.78,12.67.08.41,1.15-.17.07.38-.38.06.06.34c.19,0,.3-.1.32-.22a.28.28,0,0,0,0-.18.72.72,0,0,0,.44-.18c.07-.1.11-.18.09-.25s-.07-.11-.16-.12a.82.82,0,0,0-.44.17c0-.2-.1-.34-.2-.39A.45.45,0,0,0,130,105a1.27,1.27,0,0,0-.38.11,1.28,1.28,0,0,1-.32.1c.08-.11.08-.18,0-.23a.5.5,0,0,0-.29-.08,2.7,2.7,0,0,0-.53,0,2.33,2.33,0,0,0,.43.27A.77.77,0,0,0,129.33,105.23Zm-.76-16.56,1.15-.19c0-.19-.09-.29-.18-.31a.82.82,0,0,0-.27,0,.6.6,0,0,1-.27,0c-.09,0-.15-.12-.19-.3.19,0,.29-.07.32-.11s0-.15,0-.33a.44.44,0,0,0-.06-.17.35.35,0,0,0-.39-.15,2,2,0,0,1,0,.46,1.14,1.14,0,0,1-.08.33,1.14,1.14,0,0,0-.08.33A1.55,1.55,0,0,0,128.57,88.67Zm.51,4.59c0,.27.12.42.21.44a.4.4,0,0,0,.29-.06l.34-.22a.3.3,0,0,1,.34,0c0-.18-.19-.26-.47-.24s-.52,0-.71.08l-.07-.38-.39.06a.68.68,0,0,0,.12.32S128.89,93.29,129.08,93.26Zm-.29-1.55.35-.06-.08-.37-.35,0Zm1.1,12.3-1.12.17c0,.18.1.3.19.34a.79.79,0,0,0,.32.08h.38a.72.72,0,0,1,.37.13l-.14-.73.38-.06-.07-.38a.61.61,0,0,0-.32.11S129.86,103.83,129.89,104Zm-1-13.83.38-.07a.56.56,0,0,0-.11-.31.63.63,0,0,0-.35,0C128.81,89.92,128.83,90.05,128.86,90.18Zm.19,5,1.12-.18a.55.55,0,0,0-.2-.39.57.57,0,0,0-.32-.09,2.44,2.44,0,0,0-.38,0,.55.55,0,0,1-.37-.14Zm.17-9.38-.19.1a.37.37,0,0,0-.11.38.18.18,0,0,0,.16-.07C129.22,86.17,129.26,86,129.22,85.83Zm-.17,17.92c.2.06.35.06.43,0a.28.28,0,0,0,.09-.27.31.31,0,0,0-.18-.22c-.11,0-.24,0-.41.12Zm0-14.39.38-.07-.08-.41L129,89Zm.58,13.51c0,.19.07.29.11.32a.66.66,0,0,0,.34,0c0-.19-.07-.29-.11-.32a.66.66,0,0,0-.34,0c-.14-.19-.26-.29-.38-.29s-.2,0-.24.09,0,.12.07.18A.83.83,0,0,0,129.68,102.87Zm-.35-6.18.39-.06-.07-.38-.39.06Zm.89-5.6c0,.18,0,.3,0,.33s-.14.08-.32.11q.33.27.36.42a.48.48,0,0,1,0,.29.33.33,0,0,0-.05.22c0,.06.12.12.32.18-.13-.17-.16-.29-.11-.37a.54.54,0,0,1,.28-.19L131,92c.11,0,.16-.11.14-.2-.19.13-.33.16-.41.1a.53.53,0,0,1-.2-.27c0-.12-.09-.23-.14-.35s-.11-.16-.2-.14l-.07-.35a1.22,1.22,0,0,1-.34,0,1.28,1.28,0,0,0-.34,0,.24.24,0,0,0-.18.12c0,.06,0,.18.16.34ZM129.79,97l-.2.1a.37.37,0,0,0-.11.37.16.16,0,0,0,.17-.06A.34.34,0,0,0,129.79,97Zm-.22-1.14.35-.05-.07-.38-.35,0Zm0,1.95a1.89,1.89,0,0,1,.23.36.43.43,0,0,1,0,.19c0,.06,0,.13-.06.21a1,1,0,0,0,0,.38q.28,0,.33-.24a.37.37,0,0,1,.34-.25,2.9,2.9,0,0,1-.05-.61,2.3,2.3,0,0,1,.1-.62.74.74,0,0,1,.3-.42.59.59,0,0,1,.51,0c0-.18-.2-.27-.5-.26l-.72.06a3,3,0,0,1,.07.88C130.12,97.64,129.92,97.77,129.55,97.82Zm.08-7.77c.12.17.21.24.25.23s.06-.07.05-.14a.3.3,0,0,0-.1-.17C129.77,89.92,129.7,89.94,129.63,90.05Zm.9-1.71a5.22,5.22,0,0,0-.56.13.26.26,0,0,0-.18.35Zm-.25,11.29.08.41.35-.05a1.07,1.07,0,0,0-.1-.36s-.14,0-.33,0l-.06-.35-.39.06c0,.18.08.29.12.3A.72.72,0,0,0,130.28,99.63Zm0-10.08c0-.19-.07-.29-.11-.32a.59.59,0,0,0-.34,0,.48.48,0,0,0,.07.2A.35.35,0,0,0,130.32,89.55ZM130,88l.42-.06-.08-.38-.42.07Zm.54,13.15a.83.83,0,0,0-.21.06.34.34,0,0,0-.11.37.32.32,0,0,0,.17-.06A.31.31,0,0,0,130.58,101.18Zm-.18,1.16a1.58,1.58,0,0,0,.29.17.81.81,0,0,0,.52.13.7.7,0,0,1-.17-.43.42.42,0,0,1,.11-.27.54.54,0,0,1,.3-.15,2.17,2.17,0,0,0-.15-.49.32.32,0,0,0-.37-.18.53.53,0,0,1-.05.4,1.08,1.08,0,0,1-.22.21l-.21.21A.49.49,0,0,0,130.4,102.34ZM131,90.61a3.27,3.27,0,0,0-.15-.5.33.33,0,0,0-.42-.18,3.27,3.27,0,0,0,.15.5A.33.33,0,0,0,131,90.61Zm-.34,4.71.39-.06c0-.24-.1-.49-.14-.73a.16.16,0,0,0,.17-.06c.13-.07.17-.2.14-.41l-.77.12Zm0,8.19.39-.05-.07-.38-.39,0Zm.14.73.38-.06-.06-.34-.39,0Zm0-10.5c.19,0,.22-.08.11-.16S130.68,93.56,130.72,93.74Zm.4,12.4a.83.83,0,0,0-.21.06c-.13.07-.17.19-.14.38a.48.48,0,0,0,.2-.07A.31.31,0,0,0,131.12,106.14ZM131,93l.42-.07-.08-.38-.41.07C130.92,92.7,130.94,92.83,131,93Zm.18,3.06.38-.06-.07-.38-.38.06C131.1,95.76,131.13,95.89,131.15,96Zm.25,11.64a2.14,2.14,0,0,0,.5-.13c.15,0,.2-.17.17-.36a1,1,0,0,1-.34,0,1.41,1.41,0,0,0-.35,0,.19.19,0,0,0-.17.14C131.19,107.37,131.25,107.49,131.4,107.66Zm0-4.26.38-.05-.07-.38-.38,0Zm.07.38c.13.17.21.25.26.23s.06-.06,0-.13a.27.27,0,0,0-.1-.18C131.57,103.65,131.5,103.68,131.43,103.78Zm.39-6.31a.68.68,0,0,0-.2.07.31.31,0,0,0-.11.37c.18,0,.29-.06.32-.1S131.86,97.66,131.82,97.47Zm.23,5.44a2.25,2.25,0,0,0-.18-.68c-.05-.07-.16-.08-.35-.06a2.64,2.64,0,0,0,.11.41Q131.78,103,132.05,102.91Zm-.4,3.93a2.2,2.2,0,0,0,.49-.12.29.29,0,0,0,.17-.36l-.74.1Zm.36-6.27c-.2-.06-.33-.06-.37,0a.3.3,0,0,0,0,.29.8.8,0,0,0,.22.32.33.33,0,0,0,.29.13l-.14-.76.38,0-.07-.38a.55.55,0,0,0-.32.1S132,100.39,132,100.57Zm-.29,4.73c.12.18.21.23.24.16a.29.29,0,0,0,0-.23.3.3,0,0,0-.11-.2C131.82,105,131.77,105.08,131.72,105.3Zm.38,0,.39-.06c0-.13-.06-.27-.08-.41l-.39,0Zm.15-5.5.42-.06a.35.35,0,0,1-.2-.32c0-.14,0-.27,0-.39a.56.56,0,0,0-.07-.3c0-.07-.17-.09-.35-.07.24.16.33.33.26.53A1.16,1.16,0,0,0,132.25,99.75Zm-.12,3.54c.12.17.21.25.26.23s.06-.06,0-.13a.32.32,0,0,0-.1-.18C132.27,103.16,132.2,103.19,132.13,103.29Zm.89-1.73a3.43,3.43,0,0,0-.55.13.29.29,0,0,0-.18.37,2.93,2.93,0,0,0,.53-.13A.29.29,0,0,0,133,101.56Zm-.27.86c-.11-.08-.18-.09-.22,0a.34.34,0,0,0,0,.2c0,.07,0,.1.09.11S132.69,102.62,132.75,102.42Zm.33,3.83a3,3,0,0,0-.15-.5.31.31,0,0,0-.37-.17,1.73,1.73,0,0,0,.1.37C132.75,106.18,132.89,106.27,133.08,106.25Zm.1-1.58a3.09,3.09,0,0,0-.15-.51.32.32,0,0,0-.38-.2,1.9,1.9,0,0,0,.15.51A.31.31,0,0,0,133.18,104.67Zm-.21-1.11c.13.17.22.25.27.23s.08-.07.07-.14a.28.28,0,0,0-.13-.18C133.12,103.43,133,103.45,133,103.56Zm.56,3.27a.32.32,0,0,0-.38-.2,1,1,0,0,0,.08.24,1.11,1.11,0,0,0,.45.47A3.09,3.09,0,0,0,133.53,106.83Zm-.29-4.09c.06.27.1.39.12.35a.44.44,0,0,0,0-.25.93.93,0,0,0,0-.32C133.34,102.45,133.3,102.52,133.24,102.74Zm.09,2.73.42-.06a.69.69,0,0,0-.12-.33.73.73,0,0,0-.38,0Zm.55.66c0-.18-.12-.26-.26-.24s-.19.12-.16.3Z"/><path d="M140,82.37q3-.59,5.73-1A33.73,33.73,0,0,1,151,81a20.74,20.74,0,0,1,4.61.54,10.59,10.59,0,0,1,3.76,1.72,10.06,10.06,0,0,1,2.8,3.23,15,15,0,0,1,1.66,5,16.52,16.52,0,0,1-.34,5.12,12.79,12.79,0,0,1-1.73,4.08,11.81,11.81,0,0,1-3,3.11,16.82,16.82,0,0,1-4.15,2.18,19.81,19.81,0,0,0-2.72.2l-2.81.41c-.94.13-1.86.24-2.76.31a13.56,13.56,0,0,1-2.56,0c-.35-1.86-.71-3.82-1.08-5.86s-.75-4.11-1.12-6.19-.7-4.14-1-6.18-.61-4-.86-5.83a1.36,1.36,0,0,1,0-.18C139.71,82.49,139.81,82.4,140,82.37Zm1.44,1.33-.39.07.08.42c.19,0,.29-.07.32-.11s0-.17,0-.38c.23.08.35.11.37.08s0-.06-.07-.11a.47.47,0,0,0-.22-.09C141.45,83.57,141.42,83.61,141.44,83.7Zm.19,3.18c.11.08.19.08.22,0a.44.44,0,0,0,0-.26.36.36,0,0,0-.12-.23c-.06,0-.13,0-.2.08Zm.15.77.38-.06-.07-.39-.39.06C141.73,87.39,141.75,87.52,141.78,87.65Zm.09-1.61.42-.06-.07-.39-.42.07Zm.26,3.53a2.14,2.14,0,0,0,0,.63s.05,0,.08-.19a2.69,2.69,0,0,0,0-.4C142.25,89.48,142.21,89.47,142.13,89.57Zm1.33.59c0,.13,0,.26.08.39l.35-.06c.15-.22.16-.33,0-.35a1.55,1.55,0,0,0-.47,0c0-.13,0-.26-.07-.39a2,2,0,0,0-.7,0c-.14,0-.21.11-.2.18s.1.13.27.19A1.43,1.43,0,0,0,143.46,90.16Zm-.29-3.53a2.28,2.28,0,0,0-.5.13.29.29,0,0,0-.16.37A2.19,2.19,0,0,0,143,87,.3.3,0,0,0,143.17,86.63Zm-.42-.33.35-.06-.07-.39-.35.06Zm0-2c.13.17.21.25.26.23s.06-.07,0-.14a.27.27,0,0,0-.1-.18C142.88,84.17,142.81,84.2,142.74,84.31Zm1.51,10.11.07.39.35-.06c.15-.21.17-.33.05-.35a2,2,0,0,0-.47,0,.47.47,0,0,0-.21-.37.67.67,0,0,0-.34-.09l-.4,0a.64.64,0,0,1-.38-.12l.15.78Zm-1.2-10.56.39-.06-.08-.43-.39.07Zm.69,12.23-.08-.39-.38.06.07.38Zm.13-10a.35.35,0,0,0,.17.25.65.65,0,0,0,.29.11.28.28,0,0,0,.25-.1.42.42,0,0,0,0-.39l-.76.13a.63.63,0,0,0-.12-.32s-.15,0-.34,0c0,.19.07.3.11.32A.62.62,0,0,0,143.87,86.11Zm-.22,7.2c.13.18.22.26.27.25s.06,0,.05-.11a.44.44,0,0,0-.11-.2C143.8,93.18,143.73,93.21,143.65,93.31Zm0-4c.13.17.21.25.26.23s.06-.07,0-.14a.34.34,0,0,0-.11-.18C143.81,89.19,143.75,89.22,143.67,89.33Zm.6-5.28-.15-.81-.38.07a2.56,2.56,0,0,0,.16.55A.3.3,0,0,0,144.27,84.05ZM144,88a.13.13,0,0,0,0-.1s-.06,0-.09,0,0,.09,0,.19S144,88.07,144,88Zm.2,9.26a.34.34,0,0,0,0-.26.32.32,0,0,0-.13-.22q-.1-.07-.21.09l.07.39C144.07,97.37,144.15,97.37,144.19,97.29Zm-.09.77c.11.08.19.09.24,0a.4.4,0,0,0-.09-.49c-.07,0-.14,0-.22.09Zm-.07-6.8c.13.18.21.24.25.18a.26.26,0,0,0,0-.22.35.35,0,0,0-.11-.2C144.14,91,144.09,91.06,144,91.26Zm.11,9.15.39,0-.08-.39-.38,0Zm-.06-13.14c.19,0,.22-.08.11-.16S144.05,87.09,144.08,87.27ZM144.2,90c.13.18.21.24.25.18a.37.37,0,0,0,0-.22.32.32,0,0,0-.11-.2C144.31,89.76,144.26,89.84,144.2,90Zm0,6.37c.18,0,.22-.08.11-.16S144.19,96.23,144.23,96.41Zm.11,7.2.38,0c0-.13-.05-.26-.07-.39l-.39,0Zm0-4,.42-.06a.61.61,0,0,0-.11-.32.69.69,0,0,0-.38,0Zm0-14.76.38-.06-.07-.39-.38.07Zm0,4c.12.17.21.25.26.23s.06-.06,0-.13a.35.35,0,0,0-.1-.19C144.51,88.68,144.44,88.71,144.37,88.82Zm.22,9.57c.13.18.22.26.26.24s.06-.07.05-.14a.34.34,0,0,0-.11-.18C144.73,98.26,144.67,98.29,144.59,98.39Zm.18-5.25c.11.08.18.09.22,0a.24.24,0,0,0,0-.2c0-.07,0-.11-.09-.11S144.83,92.94,144.77,93.14Zm.43,2.33a.53.53,0,0,1,0-.36.33.33,0,0,1,.2-.18.78.78,0,0,1,.46,0,.81.81,0,0,0-.34-.49.77.77,0,0,0-.57-.17.79.79,0,0,1-.05.35,3.48,3.48,0,0,0-.1.41.68.68,0,0,0,0,.33C144.9,95.48,145,95.5,145.2,95.47Zm-.27,9.22.38,0-.06-.35-.39,0Zm.32-13.22c0-.19-.11-.27-.24-.25s-.18.12-.14.31ZM145,100a.54.54,0,0,0-.13.29.34.34,0,0,0,.11.26c.07.08.21.1.42.07.13-.21.14-.35,0-.41a.52.52,0,0,1-.19-.37l.35,0a.5.5,0,0,0,0-.43.28.28,0,0,0-.25-.11.23.23,0,0,0-.2.17c0,.1,0,.24.13.42A.41.41,0,0,0,145,100Zm0,1.94c-.13.07-.17.19-.14.38,0-.09,0-.15,0-.17a.32.32,0,0,1,.14,0,.38.38,0,0,0,.13-.06.17.17,0,0,0,0-.18A.56.56,0,0,0,145,102Zm0-5.23c.33-.26.56-.33.7-.21a5.55,5.55,0,0,0,.52.44l-.15-.82-.77.11a.58.58,0,0,0-.06-.17.35.35,0,0,0-.39-.16Zm.25,2.24s0-.06,0-.14a.31.31,0,0,0-.09-.18c0-.06-.11,0-.18.08Q145.25,99,145.29,99Zm-.11,4.93.42-.05-.08-.39-.42.05Zm.15-5.61a1.91,1.91,0,0,1,.34,0,1.33,1.33,0,0,0,.34,0,.19.19,0,0,0,.17-.13c0-.08,0-.2-.16-.38l-.77.11Zm0-4.43c.13.18.21.26.26.24s.06-.07,0-.14a.27.27,0,0,0-.1-.18C145.44,93.73,145.37,93.75,145.3,93.86Zm.15,9.21.39,0a.69.69,0,0,0-.12-.33s-.15,0-.34,0Zm.12-5.61c.11.08.18.09.22,0a.37.37,0,0,0,0-.21c0-.07,0-.1-.09-.11S145.62,97.25,145.57,97.46Zm.47-1.71c0-.19-.12-.27-.24-.25s-.18.12-.14.31Zm.65,3.51a.76.76,0,0,0-.34-.48.83.83,0,0,0-.57-.16,1.92,1.92,0,0,0,.18.51C146.05,99.27,146.29,99.32,146.69,99.26Zm-.72,1.68a.1.1,0,0,0,0-.1s-.06,0-.09,0,0,.09,0,.19S146,101,146,100.94Zm11.15-11.73a7.46,7.46,0,0,0-4.52-2.88,14.28,14.28,0,0,0-6.67.24c.25,2.38.61,4.87,1.09,7.45s1,5.07,1.64,7.42a14.23,14.23,0,0,0,4.84-.87A7.83,7.83,0,0,0,157,98.19a6.7,6.7,0,0,0,1.43-3.83A10.38,10.38,0,0,0,157.12,89.21Zm-11-3.87.42-.07-.07-.39L146,85Zm0,17.24c.11.08.19.09.22,0a.32.32,0,0,0,0-.21c0-.07-.05-.11-.1-.12S146.17,102.38,146.11,102.58Zm.15.78.38,0-.07-.39-.38,0Zm.11-18.87.39-.06-.07-.39-.39.07Zm.2,17.28a.28.28,0,0,0,0-.2c0-.07-.05-.11-.1-.12s-.1.1-.16.3C146.46,101.83,146.54,101.84,146.57,101.77Zm.43,3.5c0-.09,0-.21-.07-.36a1.34,1.34,0,0,0-.1-.35.35.35,0,0,0-.15-.18q-.1,0-.21.12a.88.88,0,0,0,.12.38A2.65,2.65,0,0,0,147,105.27Zm-.22-1.18c.13.18.21.25.25.19a.26.26,0,0,0,0-.22.29.29,0,0,0-.11-.21S146.84,103.89,146.78,104.09Zm.1-1.61c.13.18.22.26.26.24s.06-.06.05-.13a.33.33,0,0,0-.11-.19C147,102.35,147,102.37,146.88,102.48Zm.15.78c.12.18.21.26.25.24s.06-.06.05-.13a.34.34,0,0,0-.11-.19C147.17,103.13,147.1,103.16,147,103.26Zm.11-18.9c.13.18.21.24.25.18a.27.27,0,0,0,0-.22.24.24,0,0,0-.11-.2C147.26,84.08,147.2,84.16,147.14,84.36Zm.17-1.23c.11.08.19.09.22,0a.3.3,0,0,0,0-.23c0-.08,0-.12-.09-.13S147.37,82.9,147.31,83.13Zm.59,22c.15,0,.21-.19.17-.4a2,2,0,0,0-.51.12c-.16.05-.22.19-.18.4A2.08,2.08,0,0,0,147.9,105.1Zm0-1.15-.39,0c-.07.11-.08.18,0,.22a.42.42,0,0,0,.26,0,.38.38,0,0,0,.23-.1q.08-.09-.09-.21l.38,0a1.42,1.42,0,0,0,0-.67c-.05-.16-.11-.23-.18-.22s-.13.1-.18.26A1.29,1.29,0,0,0,147.94,104Zm-.29-1.57c.13.18.21.26.26.24s.06-.06,0-.13a.27.27,0,0,0-.1-.19C147.79,102.25,147.72,102.27,147.65,102.38Zm.12-18.93c.13.18.21.25.24.24s0-.07,0-.14a.31.31,0,0,0-.09-.18C147.9,83.31,147.84,83.34,147.77,83.45Zm.28-.45c0,.29.09.41.12.37a.67.67,0,0,0,0-.25,1,1,0,0,0,0-.32C148.14,82.71,148.1,82.78,148.05,83Zm.6,1.11L149,84l-.07-.39-.39.07Zm.57,20.45c.24.09.39.08.46,0a.55.55,0,0,0,.07-.4.52.52,0,0,0-.21-.35q-.16-.15-.45,0Zm.18-1.2.42,0-.07-.4-.42.06Zm.63,1.1c.11.11.18.1.21,0a.85.85,0,0,0,0-.39,1,1,0,0,0-.14-.36c-.06-.11-.13-.1-.21,0S150,104.21,150,104.46Zm.49-1.64.38,0c0-.19-.07-.3-.12-.33s-.15,0-.34,0Zm.45.35c.13.18.21.24.25.19a.29.29,0,0,0,0-.23.36.36,0,0,0-.11-.21S151,103,151,103.17Zm.94,1.06-.16.09a.39.39,0,0,0-.11.38q.29,0,.3-.09A.93.93,0,0,0,151.91,104.23Zm.18-1.2.38,0a.3.3,0,0,0-.45-.35Zm.59,1.11.38,0-.07-.4-.38,0Zm.44-19.58a.48.48,0,0,0-.2.07c-.11.07-.15.19-.11.39a.61.61,0,0,0,.32-.11A.58.58,0,0,0,153.12,84.56Zm-.19,18.77.38,0-.07-.4-.39.05C152.88,103.06,152.9,103.2,152.93,103.33ZM152.83,83c.13.17.22.25.26.23s.06-.06,0-.14a.29.29,0,0,0-.11-.18C153,82.84,152.91,82.87,152.83,83Zm1.07,19-.42.05a.46.46,0,0,0,.05.46.3.3,0,0,0,.27.13.28.28,0,0,0,.21-.19.49.49,0,0,0-.11-.45c.18,0,.28-.07.29-.15a.18.18,0,0,0-.07-.18.15.15,0,0,0-.18,0C153.88,101.68,153.86,101.8,153.9,102Zm-.07,2c.13.2.26.31.4.32s.21,0,.25-.09,0-.13-.07-.19a.94.94,0,0,0-.58,0l-.07-.4c-.11-.09-.18-.09-.22,0a.44.44,0,0,0,0,.26.45.45,0,0,0,.11.24C153.69,104.16,153.76,104.13,153.83,104Zm-.08-20.36.34-.07-.07-.39-.35.06Zm.28,1.58.74-.13-.08-.39a1.76,1.76,0,0,0-.49.14C154.05,84.9,154,85,154,85.22Zm.47,17.92-.39,0,.07.37c.18,0,.29-.1.31-.23a.35.35,0,0,0,0-.18c.2.07.34,0,.41-.07a.56.56,0,0,0,.07-.4.52.52,0,0,0-.21-.36q-.17-.15-.42,0Zm-.26-18.78.38-.06c0-.13-.05-.27-.07-.4l-.38.07Zm.35,17.13c.13.18.22.27.26.25s.06-.06.05-.14a.34.34,0,0,0-.11-.19S154.67,101.38,154.59,101.49Zm1.5,1.83-1.15.13c0,.22.09.34.14.36a.28.28,0,0,0,.21,0l.35-.11a.84.84,0,0,1,.53,0l-.08-.4.39,0c.06-.21.05-.35,0-.44a.29.29,0,0,0-.27-.12.27.27,0,0,0-.22.17C155.92,103,156,103.13,156.09,103.32ZM155,101.44a1.42,1.42,0,0,1,.34,0,1.28,1.28,0,0,0,.39,0,.4.4,0,0,0,.3-.15.56.56,0,0,0,.05-.41,5.81,5.81,0,0,0-.71.14C155.07,101.12,154.94,101.25,155,101.44Zm.28,1.6.39,0a.69.69,0,0,0-.12-.34.6.6,0,0,0-.34,0Zm.26-20.53a.22.22,0,0,1,0,.19.23.23,0,0,1-.13.06l-.14,0s0,.07,0,.17a.56.56,0,0,0,.17-.07A.32.32,0,0,0,155.52,82.51Zm.68,19.19.33,0a1.33,1.33,0,0,0,.33-.08.24.24,0,0,0,.16-.15c0-.07,0-.14-.12-.23l-.77.1Zm1.07-18.27-1.15.2c0,.1.09.16.22.19a1.2,1.2,0,0,0,.8-.14A.23.23,0,0,0,157.27,83.43Zm.26,19.34c-.05-.27-.1-.54-.14-.8l-1.12.13c0,.2.2.31.49.35A1.6,1.6,0,0,1,157.53,102.77Zm-1.09-1.92.38,0c.08-.11.1-.18.05-.23a.2.2,0,0,0-.17,0,.32.32,0,0,0-.19.1A.21.21,0,0,0,156.44,100.85Zm0-15.27q.28,0,.12-.15C156.48,85.36,156.44,85.42,156.47,85.58Zm.15.84c.11.08.19.08.22,0a.31.31,0,0,0,0-.23c0-.09,0-.13-.09-.13S156.68,86.18,156.62,86.42Zm.1-1.66c.19,0,.23-.09.11-.17S156.69,84.57,156.72,84.76Zm.43,2.39c.13.18.21.26.26.24s.06-.07.05-.14a.41.41,0,0,0-.11-.19C157.29,87,157.23,87,157.15,87.15Zm.09,14c.23.07.38.07.47,0a.29.29,0,0,0,.09-.28.32.32,0,0,0-.18-.24.51.51,0,0,0-.45.12ZM157.56,85c.19,0,.22-.09.11-.17S157.53,84.83,157.56,85Zm.56,16.43-.42.05.07.41c.21,0,.33-.06.36-.1s0-.16,0-.36l.38,0a.47.47,0,0,0,0-.45.33.33,0,0,0-.27-.12.31.31,0,0,0-.22.18C157.92,101.14,158,101.28,158.12,101.46Zm.95-14.63.07.41-.38.06c-.08.11-.08.19,0,.23a.37.37,0,0,0,.26,0,.36.36,0,0,0,.23-.11q.08-.09-.09-.21l.38-.07a.71.71,0,0,0-.11-.34s-.15,0-.34,0l-.07-.4-.39.07c-.15.22-.16.34,0,.36A1.66,1.66,0,0,0,159.07,86.83Zm-.48,1.74.38-.06-.07-.41-.38.07Zm0,13.25c.13.18.21.27.26.25s.06-.06,0-.14a.37.37,0,0,0-.11-.19C158.71,101.68,158.65,101.71,158.57,101.82Zm.34-2.52a.66.66,0,0,0-.2.06c-.11.07-.15.2-.11.39a.55.55,0,0,0,.32-.1A.57.57,0,0,0,158.91,99.3Zm.36,2c.15-.22.16-.34,0-.36a1.91,1.91,0,0,0-.48,0c0,.2.12.32.24.35A.55.55,0,0,0,159.27,101.32ZM158.93,86l.38-.06-.07-.4-.38.06ZM159,97.59c-.06.21-.07.31-.05.29a.31.31,0,0,0,.08-.14,1.28,1.28,0,0,0,.07-.21C159.11,97.46,159.08,97.49,159,97.59Zm.22,1.22c.13.21.21.28.25.23a.33.33,0,0,0,0-.25.38.38,0,0,0-.11-.23C159.33,98.52,159.28,98.6,159.22,98.81Zm.1-1.67c0,.2.08.3.16.32a.18.18,0,0,0,.17-.06.21.21,0,0,0,0-.19C159.61,97.14,159.5,97.11,159.32,97.14Zm.26,3.73a.38.38,0,0,0,.35.07.49.49,0,0,0,.27-.19.23.23,0,0,0,0-.25c0-.08-.15-.11-.34-.09.11.09.14.13.07.11a1.18,1.18,0,0,0-.25,0,.29.29,0,0,0-.24,0C159.41,100.57,159.45,100.68,159.58,100.87ZM159.67,88l.42-.07-.07-.4-.42.07Zm.13-1.68.35-.06c0-.13-.05-.27-.07-.4l-.35.06C159.75,86,159.78,86.16,159.8,86.3Zm0,13.71.38-.05-.07-.4-.38,0Zm.41-2.16a.83.83,0,0,0-.21.06.37.37,0,0,0-.11.39l.77-.1a1.45,1.45,0,0,1-.24-.46.88.88,0,0,1,0-.3.83.83,0,0,1,.06-.21.67.67,0,0,0,0-.25l-.39,0Zm.22-7.89-.08-.44-.42.07L160,90Zm-.39,9.19.39-.05-.08-.44-.39,0Zm.3-11.7.39-.06-.07-.41-.39.07Zm.23,3.29c.11.08.17.09.2,0a.66.66,0,0,0,0-.25.54.54,0,0,0-.1-.23s-.1,0-.18.09Zm.16,7.87a.58.58,0,0,1,.29,0,.76.76,0,0,0,.25,0,.2.2,0,0,0,.16-.12.73.73,0,0,0,0-.43.82.82,0,0,0-.38.11A1.91,1.91,0,0,0,160.75,98.61Zm.14-10.42.38-.06-.07-.4-.38.06C160.84,87.93,160.87,88.06,160.89,88.19Zm.48,7c0-.13,0-.27-.07-.4l-.42.06.08.4Zm-.47,4.23c.19,0,.22-.08.11-.17S160.87,99.26,160.9,99.46Zm.09-1.72.33,0,.35-.08a.27.27,0,0,0,.18-.16c0-.07,0-.14-.13-.23l-.8.11C161,97.47,161,97.61,161,97.74Zm.09-4.17.35,0-.07-.41-.35.06Zm1.15-2.25-1.15.17a5.64,5.64,0,0,0,.7.46,1.52,1.52,0,0,0,1,.12.43.43,0,0,0-.26-.37.46.46,0,0,1-.26-.38c.18,0,.28-.08.29-.16a.18.18,0,0,0-.06-.18.15.15,0,0,0-.19,0C162.21,91,162.19,91.12,162.23,91.32Zm-1,5.56.42-.06-.06-.37-.42.06Zm.06-4.17.38-.06-.07-.4-.38,0C161.24,92.44,161.27,92.57,161.29,92.71Zm.1-1.68.38-.06-.07-.41-.38.06Zm.13,5,.35,0c0-.14-.05-.27-.08-.41l-.34,0Zm.43-6.32a.48.48,0,0,0-.2.07c-.11.07-.15.2-.11.4.15-.23.25-.32.29-.26S162,89.93,162,89.73Zm-.13,3.73.38,0-.07-.41-.38.06Zm.36,2.08c.18,0,.29-.11.31-.24a.81.81,0,0,0,0-.22l-.38,0Zm.24-.87.38-.06a2.08,2.08,0,0,0-.14-.51c-.06-.14-.16-.09-.31.16Z"/></g><path d="M61.39,57.39l-2-13.45-.44-2.82a.55.55,0,0,1,0-.4.88.88,0,0,1,.53-.21,2,2,0,0,1,.93.07,2.4,2.4,0,0,1,.86.47,4.33,4.33,0,0,1,.66.8,5.12,5.12,0,0,1,.74,2,7.65,7.65,0,0,1-.12,2.65c0,.12-.08.35-.15.71l-.12.63a16.88,16.88,0,0,0,1.49,4.28c.27.58.66,1.37,1.16,2.37s.81,1.64.94,1.91v.05q.12.78,0,.93a.56.56,0,0,1-.33.19c-.27,0-.55-.11-.87-.47V57A30.87,30.87,0,0,0,62.35,51c-.57-1.21-1-2.12-1.22-2.71l1.41,9a1.25,1.25,0,0,1,0,.56.48.48,0,0,1-.39.26.55.55,0,0,1-.48-.1.67.67,0,0,1-.22-.43ZM60.12,41.48l.61,4.7c.07.47.14.82.19,1a8.44,8.44,0,0,0,.58-1l0-2a1.61,1.61,0,0,0,0-.37,5.45,5.45,0,0,0-.42-1.29C60.77,41.84,60.45,41.49,60.12,41.48Z"/><path d="M68.17,49,69,53.88l.1.68.09.64.28-.05.62-.14q.87-.15,1,.42A.68.68,0,0,1,71,56a.68.68,0,0,1-.46.3l-.94.17c-.64.11-1.06.17-1.24.18l-.26.07c-.51.09-.79,0-.84-.38a.81.81,0,0,1,.06-.43c.07-.14.14-.22.22-.24l.61-.11v-.31l-.9-4.84-.69-5.13c-.13-.87-.29-1.68-.48-2.44l-.41.08-.49.11a.89.89,0,0,1-.5,0,.57.57,0,0,1-.26-.46c0-.35.27-.59,1-.71l2.54-.46c.58-.11.89,0,.94.32a.55.55,0,0,1-.13.43.61.61,0,0,1-.39.26l-1.1.19c.16.62.29,1.32.42,2.11Z"/><path d="M71.21,50.62,71,49.28l-.09-.55A24.12,24.12,0,0,1,70.48,44a4.65,4.65,0,0,1,.69-2.45,3.31,3.31,0,0,1,2.15-1.29.65.65,0,0,1,.52.08.59.59,0,0,1,.23.38.75.75,0,0,1-.07.44.4.4,0,0,1-.29.25l-1,.18c-.29.06-.52.3-.67.75a5.39,5.39,0,0,0-.23,1.55A17.73,17.73,0,0,0,72,46.66l0,.11.59,4.44A9.06,9.06,0,0,0,73,53.12a6.76,6.76,0,0,0,.42.82,1.85,1.85,0,0,0,.45.47,1.62,1.62,0,0,0,1.3.27.67.67,0,0,0,.43-.28.88.88,0,0,1,.46,0,.4.4,0,0,1,.26.35c.1.6-.25,1-1,1.12a4.36,4.36,0,0,1-1,0,3.09,3.09,0,0,1-.84-.19C72.42,55.26,71.66,53.55,71.21,50.62Z"/><path d="M76.68,41.15l.8,5.73a4.71,4.71,0,0,0,1.19-.1l.77-.14a3.12,3.12,0,0,0-.06-.74c-.07-.43-.26-1.36-.58-2.78s-.54-2.51-.65-3.24a.54.54,0,0,1,.12-.46.55.55,0,0,1,.33-.24.63.63,0,0,1,.27,0,1.09,1.09,0,0,1,.24,0l.21,0q.47,3,1.56,8.66T82,53.79a.54.54,0,0,1-.17.42.76.76,0,0,1-.47.27c-.18,0-.35-.08-.51-.35a4.71,4.71,0,0,1-.42-1.25c-.13-.57-.23-1.06-.31-1.47,0-.18-.07-.39-.1-.62s-.1-.67-.16-1.08c-.09-.71-.15-1.12-.17-1.23v-.09l-.07-.66-.16-.19v0a2.11,2.11,0,0,1-.38.12l-1.41,0,.41,2.63L78.79,54a1.09,1.09,0,0,1-.06.6.54.54,0,0,1-.41.34c-.29.05-.53-.19-.72-.73A13.11,13.11,0,0,1,77.08,52l-.48-3.5a8.29,8.29,0,0,0-.22-1.19v-.12c-.07-.8-.11-1.26-.13-1.35l-.95-5.14a.76.76,0,0,1,.1-.51.58.58,0,0,1,.4-.29C76.24,39.82,76.53,40.24,76.68,41.15Z"/><path d="M87.45,48.6,87.9,50a11.69,11.69,0,0,0,.41,1.33,9.22,9.22,0,0,1,.43,1.39v0a.64.64,0,0,1-.25.71,1.39,1.39,0,0,1-.72,0,.67.67,0,0,1-.35-.56,18.38,18.38,0,0,0-.75-2.77l-2.15,0a12,12,0,0,0,0,1.72,12.54,12.54,0,0,1,0,1.36c0,.59-.22.91-.56,1a.71.71,0,0,1-.49-.09.54.54,0,0,1-.29-.4l0-.21a106.42,106.42,0,0,0,.33-12c0-.11,0-.42-.08-.93a5.44,5.44,0,0,1,.06-2.21l.72-.13a.94.94,0,0,1,.53.06.48.48,0,0,1,.29.4,44.35,44.35,0,0,0,1.24,5.1A47.6,47.6,0,0,1,87.45,48.6Zm-1,.66a7.07,7.07,0,0,1-.25-1.15c-.08-.56-.22-1.24-.41-2.06s-.42-1.75-.7-2.83-.48-1.85-.6-2.33c0,4,0,6.74,0,8.34A4.6,4.6,0,0,0,86.41,49.26Z"/><path d="M89.78,45.08l.37,2.49a21.84,21.84,0,0,0,1.15,4.7l-.15.66-.59.11-.33-.29c-.1-.69-.21-1.46-.34-2.31s-.48-2.67-1-5.45-.94-4.85-1.16-6.23c-.11-.72.07-1.13.54-1.21a2.84,2.84,0,0,1,2,.29,2.14,2.14,0,0,1,1,1.65l.25,1.61a3,3,0,0,1,0,1.24c-.1.39-.21.81-.35,1.24s-.22.68-.23.73c.13.36.38,1.06.75,2.12a20.56,20.56,0,0,0,2.18,4.88,2,2,0,0,1,.33.66.74.74,0,0,1-.06.45.46.46,0,0,1-.33.24c-.29.05-.64-.26-1-.95a15.67,15.67,0,0,1-1-2.32c-.93-2.65-1.48-4.1-1.63-4.36Zm-1-6.76,0,.33c.1.63.25,1.53.46,2.71s.36,2,.45,2.57a2.42,2.42,0,0,0,.58-1.6,7.82,7.82,0,0,0,0-1.87,9.06,9.06,0,0,0-.17-.91,3.83,3.83,0,0,0-.24-.63A1,1,0,0,0,88.81,38.32Z"/><path d="M94.81,49.12l-1.06-7.23c-.08-.49-.24-1.23-.48-2.23s-.38-1.63-.43-1.91a.9.9,0,0,1,.14-.68.74.74,0,0,1,.48-.32c1.46-.27,2.8.44,4,2.12a7.24,7.24,0,0,1,1.31,3.19l.14,1.16.2,1.26a15.38,15.38,0,0,1,.28,3.11,9.73,9.73,0,0,1-.2,1.36,4.29,4.29,0,0,1-.35,1,5.39,5.39,0,0,1-1.48,1.78L95.82,52C95.46,52.08,95.12,51.12,94.81,49.12Zm1.69,1,.08.55c1.24-.23,1.77-1.7,1.6-4.43,0-.63-.1-1.23-.19-1.81q-1.08-6.91-3.61-6.78a16.23,16.23,0,0,0,.23,2.52c.17,1.05.48,2.69.94,4.92S96.32,49,96.5,50.14Z"/><path d="M104.75,43.91l.49,1.8a.55.55,0,0,1-.15.49.75.75,0,0,1-.44.26.82.82,0,0,1-.51-.07.52.52,0,0,1-.28-.38l-.48-2.21,0-.16-1.17.31c-.6.11-.94-.08-1-.56a.72.72,0,0,1,.07-.44.38.38,0,0,1,.32-.24l1.27-.15a2.09,2.09,0,0,0,.48-.14l-.39-1.65c-.13-.84,0-1.31.49-1.39a.46.46,0,0,1,.42.12.7.7,0,0,1,.23.44l0,.28c.22,1.37.42,2,.6,2l1.23-.31c.73-.13,1.14,0,1.21.49a.62.62,0,0,1-.11.48.61.61,0,0,1-.4.26l-1.28.1C104.89,43.32,104.7,43.55,104.75,43.91Z"/><path d="M111,34.83l1.72,9.61.38,2.44a5.79,5.79,0,0,1,.09,1.68,8.87,8.87,0,0,1-.19.91,2.22,2.22,0,0,1-.31.66,3.7,3.7,0,0,1-.49.57,3.24,3.24,0,0,1-1.71.76c-.17,0-.26-.05-.29-.23l0-.39c0-.09.07-.19.26-.3a4,4,0,0,0,1.27-1,4.13,4.13,0,0,0,.21-2.71l-2.07-11.66v-.1a3.34,3.34,0,0,1-1.19.05,1.56,1.56,0,0,1-.44-.15.35.35,0,0,1-.1-.23c0-.11,0-.23.19-.36a1.57,1.57,0,0,1,.75-.29c.36-.06,1-.14,2-.22s1.51-.05,1.53.11a.48.48,0,0,1-.11.42.64.64,0,0,1-.39.22Z"/><path d="M119.38,37.14l.08.39q1.59,10.17-1.16,10.66a1.63,1.63,0,0,1-1.72-.65,5.07,5.07,0,0,1-.94-1.79,31.44,31.44,0,0,1-.73-3.33q-.33-1.89-.88-5.47l-.61-3.26c.09-.34.21-.53.38-.56s.34.08.52.33a2,2,0,0,1,.34.86l1,6.23c.08.55.26,1.34.53,2.4s.44,1.86.53,2.4c.17,1.12.71,1.6,1.61,1.44s.88-4.38-.4-12.6l-.2-1.28-.07-.38a.61.61,0,0,1,.05-.42.51.51,0,0,1,.38-.21.73.73,0,0,1,.45,0,.51.51,0,0,1,.24.24,3.17,3.17,0,0,1,.21.72l.21,2.33Z"/><path d="M121.79,34l.92,5.49a2.19,2.19,0,0,0,0,.81l.07.46.48,3.66c.17,1,.49,1.54,1,1.45l.88-.19c.76-.14,1.18,0,1.25.46a.55.55,0,0,1-.14.45.87.87,0,0,1-.41.27,6,6,0,0,0-2,.08,1.38,1.38,0,0,1-.63.33.56.56,0,0,1-.53-.15.82.82,0,0,1-.26-.48c-.17-1.14-.39-2.85-.66-5.14s-.49-4-.66-5.15l0-.17c-.23-.93-.38-1.64-.46-2.12-.22-1.45-.09-2.22.4-2.3a.48.48,0,0,1,.41.1.53.53,0,0,1,.22.37Z"/><path d="M128.47,38.17l.86,4.85.11.68.08.64.29-.05.61-.13c.58-.11.9,0,1,.41a.72.72,0,0,1-.14.54.7.7,0,0,1-.46.29l-.94.17a9.15,9.15,0,0,1-1.24.18l-.26.07c-.51.09-.79,0-.84-.38a.82.82,0,0,1,.06-.43c.07-.14.14-.22.22-.24l.61-.11v-.31l-.9-4.84-.69-5.12a24.54,24.54,0,0,0-.48-2.44l-.41.07-.48.11a.83.83,0,0,1-.51,0,.57.57,0,0,1-.26-.46c-.05-.35.27-.59,1-.71l2.54-.46c.58-.1.89,0,.94.33a.57.57,0,0,1-.12.42.66.66,0,0,1-.4.26l-1.1.19c.16.62.29,1.32.42,2.11Z"/><path d="M136.54,39.76l.45,1.37a9.82,9.82,0,0,0,.41,1.33,10.65,10.65,0,0,1,.43,1.39v0a.65.65,0,0,1-.25.71,1.39,1.39,0,0,1-.72,0,.65.65,0,0,1-.35-.56,18.38,18.38,0,0,0-.75-2.77l-2.16,0a13.68,13.68,0,0,0,0,1.72,12.54,12.54,0,0,1,0,1.36c0,.59-.23.91-.57,1a.72.72,0,0,1-.49-.09.53.53,0,0,1-.28-.4l0-.21a106.42,106.42,0,0,0,.33-12c0-.11,0-.42-.08-.93a5.44,5.44,0,0,1,.06-2.21l.72-.13a.94.94,0,0,1,.53.06.47.47,0,0,1,.28.39,48.53,48.53,0,0,0,1.24,5.11A45.11,45.11,0,0,1,136.54,39.76Zm-1,.66a7.07,7.07,0,0,1-.25-1.15c-.09-.56-.22-1.24-.41-2.06s-.42-1.75-.7-2.83-.49-1.85-.6-2.33c0,4,0,6.74,0,8.34A4.67,4.67,0,0,0,135.5,40.42Z"/><path d="M137.39,32c-.13,0-.22-.14-.26-.39a11.49,11.49,0,0,1,0-1.57,14.88,14.88,0,0,1,.29-2.44c.17-.83.4-1.27.71-1.33s.41.1.46.44a8.78,8.78,0,0,1,0,2.19,8.59,8.59,0,0,1-.48,2.13C137.9,31.59,137.65,31.91,137.39,32Z"/><path d="M142.57,42.47h.91a.93.93,0,0,0,.65-.51,2.65,2.65,0,0,0,.3-1,8.67,8.67,0,0,0,0-2,5.58,5.58,0,0,0-.52-1.62A9.58,9.58,0,0,0,143,35.9c-.33-.43-.66-.86-1-1.31a7.44,7.44,0,0,1-1.42-3.26,4.9,4.9,0,0,1,0-1.88q.38-1.59,1.38-1.77a1.12,1.12,0,0,1,.75.13.72.72,0,0,1,.43.5.49.49,0,0,1-.44.62.85.85,0,0,1-.47-.06c-.45.11-.67.7-.66,1.79a5.13,5.13,0,0,0,.07.82,4.35,4.35,0,0,0,.37,1.11,5.09,5.09,0,0,0,.66,1.13l.8,1.07.81,1.13A7.2,7.2,0,0,1,145.49,39a6.14,6.14,0,0,1-.18,2.76,2.82,2.82,0,0,1-.67,1.18,2.23,2.23,0,0,1-1.16.62v.06a1,1,0,0,1-1.1-.71Z"/><path d="M170,83.55l-.22.09s-3.75-3.06-4.08-2.35.83,1.76,1.59,2.54a2.8,2.8,0,0,1,.82,1.59,2.31,2.31,0,0,0,.16,1.86c.74.48,1.57-1.3,1.57-1.3L179.72,84c1.92-.35,3.86-1.29,3.21-3s-4.12-.29-4.12-.29l-8.91,2.78"/><path d="M178.69,83.38s-2.09,5.42-4.64,5.85c0,0-1,.12-.41-1.17s1.9-4.08,1.9-4.08"/><path d="M178.37,81.13a32.74,32.74,0,0,0-4.56-2.27c-.5-.17-.94.47-.72,1,.11.27,2.24,2.34,2.24,2.34"/><path d="M52.74,109.88c-.25,0-.45-.3-.45-.6s0-.76,2.19-2.31a.44.44,0,0,1,.64.18.58.58,0,0,1-.15.73,6.54,6.54,0,0,0-1.77,1.53A.44.44,0,0,1,52.74,109.88ZM57,106.51a.47.47,0,0,1-.41-.29.58.58,0,0,1,.2-.71c.72-.42,1.51-.86,2.37-1.3a.45.45,0,0,1,.61.27.55.55,0,0,1-.23.7c-.85.43-1.63.86-2.33,1.27A.37.37,0,0,1,57,106.51Zm4.75-2.43a.48.48,0,0,1-.44-.34.56.56,0,0,1,.27-.68c.77-.35,1.59-.7,2.45-1a.44.44,0,0,1,.59.33.54.54,0,0,1-.29.67c-.84.34-1.65.68-2.41,1A.38.38,0,0,1,61.74,104.08Zm4.91-1.94a.48.48,0,0,1-.45-.38.56.56,0,0,1,.31-.66c.82-.28,1.66-.54,2.52-.8a.47.47,0,0,1,.57.38.55.55,0,0,1-.34.65c-.85.25-1.68.51-2.48.79Zm54.19-.6h0l-2.6,0a.54.54,0,0,1,0-1.06h0l2.59,0a.54.54,0,0,1,0,1.06Zm2.59,0A.49.49,0,0,1,123,101a.5.5,0,0,1,.46-.54l2.59-.06a.52.52,0,0,1,.47.52.5.5,0,0,1-.45.54c-.87,0-1.73.05-2.6.06Zm-7.79,0h0c-.87,0-1.73,0-2.59-.09a.5.5,0,0,1-.45-.54c0-.29.19-.56.48-.51l2.59.08a.51.51,0,0,1,.45.54A.5.5,0,0,1,115.64,101.47Zm13-.11a.5.5,0,0,1-.47-.51.51.51,0,0,1,.45-.55q1.29-.06,2.58-.15a.54.54,0,0,1,.06,1.06q-1.31.09-2.61.15Zm-18.17-.09h0c-.88,0-1.75-.09-2.6-.15a.5.5,0,0,1-.44-.55.51.51,0,0,1,.49-.5l2.59.14a.51.51,0,0,1,.44.55A.5.5,0,0,1,110.46,101.27Zm23.35-.26a.5.5,0,0,1-.46-.49.51.51,0,0,1,.43-.57c.86-.08,1.72-.16,2.58-.26a.47.47,0,0,1,.5.48.51.51,0,0,1-.41.58l-2.6.26ZM105.27,101h0l-2.59-.19a.51.51,0,0,1-.43-.57.5.5,0,0,1,.49-.49l2.59.19a.51.51,0,0,1,.43.56A.5.5,0,0,1,105.27,101Zm-33.6-.3a.49.49,0,0,1-.45-.42.54.54,0,0,1,.36-.63c.84-.2,1.69-.39,2.57-.56a.47.47,0,0,1,.53.43.53.53,0,0,1-.38.61c-.86.17-1.7.36-2.53.56Zm28.42-.1h0l-2.59-.24a.51.51,0,0,1-.42-.57.53.53,0,0,1,.5-.49l2.59.24a.51.51,0,0,1,.42.57A.49.49,0,0,1,100.09,100.56Zm38.89-.12a.5.5,0,0,1-.46-.47.52.52,0,0,1,.41-.59c.86-.12,1.72-.25,2.56-.39a.48.48,0,0,1,.53.45.53.53,0,0,1-.4.6q-1.27.21-2.58.39Zm-44.06-.37h0l-2.59-.26a.51.51,0,0,1-.42-.58.48.48,0,0,1,.5-.48L95,99a.52.52,0,0,1,.42.57A.5.5,0,0,1,94.92,100.07Zm-18.13-.41a.49.49,0,0,1-.46-.46.52.52,0,0,1,.41-.59c.85-.13,1.72-.23,2.6-.31a.51.51,0,0,1,.5.48.53.53,0,0,1-.43.58c-.86.07-1.72.18-2.56.3Zm67.33-.08a.48.48,0,0,1-.45-.44.52.52,0,0,1,.37-.61c.86-.17,1.71-.36,2.54-.55a.46.46,0,0,1,.55.41.53.53,0,0,1-.36.62c-.85.2-1.7.39-2.57.56Zm-54.38-.06h0l-1-.11-1.59-.14a.52.52,0,0,1-.44-.56.52.52,0,0,1,.5-.5l1.62.15,1,.11a.5.5,0,0,1,.41.57A.48.48,0,0,1,89.74,99.52ZM82,99.18a.5.5,0,0,1-.47-.51.52.52,0,0,1,.45-.55c.62,0,1.25,0,1.88,0h.74a.51.51,0,0,1,.46.54.5.5,0,0,1-.47.52h-.73c-.62,0-1.24,0-1.85,0Zm67.24-.81a.48.48,0,0,1-.45-.4.53.53,0,0,1,.34-.64c.84-.24,1.67-.49,2.49-.76a.45.45,0,0,1,.57.36.56.56,0,0,1-.31.66c-.83.27-1.67.53-2.53.77Zm5-1.65a.46.46,0,0,1-.43-.36.55.55,0,0,1,.28-.68c.83-.32,1.63-.66,2.41-1a.44.44,0,0,1,.6.29.55.55,0,0,1-.25.69q-1.2.56-2.46,1A.4.4,0,0,1,154.19,96.72Zm4.8-2.26a.46.46,0,0,1-.41-.29.57.57,0,0,1,.21-.71c.79-.44,1.54-.91,2.25-1.39a.44.44,0,0,1,.64.18.58.58,0,0,1-.16.73c-.74.5-1.51,1-2.32,1.43A.41.41,0,0,1,159,94.46Zm4.45-3a.44.44,0,0,1-.37-.21.58.58,0,0,1,.1-.74,24.79,24.79,0,0,0,2-1.85.41.41,0,0,1,.65,0,.56.56,0,0,1,0,.74,22.08,22.08,0,0,1-2,1.93A.42.42,0,0,1,163.44,91.42Z"/><path class="cls-5" d="M97.34,13.53q-1.08-11.4-2.17-22.8c-.11-1.24-1.33-.78-1.21.47Q95,2.6,96.13,14c.12,1.25,1.33.78,1.21-.47Z"/><path class="cls-5" d="M77.76,19.48C76.39,16.42,75.26,13,73.9,10c-.53-1.19-1.54.5-1,1.68,1.36,3.07,2.49,6.47,3.87,9.53.53,1.18,1.54-.5,1-1.68Z"/><path class="cls-5" d="M59.8,27A58.62,58.62,0,0,0,52.2,16c-.54-.66-1.13.78-.6,1.44A57,57,0,0,1,59,28.11c.42.85,1.23-.32.81-1.16Z"/><path class="cls-5" d="M72.1,5.7c-.29-.75-.56-1.52-.82-2.31-.44-1.3-1.64-.13-1.2,1.18.32,1,.66,1.89,1,2.81.21.53.69.46.94,0A2.07,2.07,0,0,0,72.1,5.7Z"/><path class="cls-5" d="M45.59,41.42c-4.65-4.16-9-8.73-13.82-12.63-.77-.63-1.51.81-.75,1.43C35.76,34,40,38.53,44.54,42.6c.73.66,1.79-.51,1.05-1.18Z"/><path class="cls-5" d="M30.1,27.16a6.63,6.63,0,0,1-1.38-1.32c-.64-.78-1.69.4-1,1.18a8,8,0,0,0,1.68,1.57c.82.55,1.56-.89.75-1.43Z"/><path class="cls-5" d="M50.75,14a18.35,18.35,0,0,0-1.54-1.52c-.6-.52-1.2.92-.61,1.44a17,17,0,0,1,1.54,1.52c.56.62,1.16-.82.61-1.44Z"/><path class="cls-5" d="M149.54,28.45c3.36-4.6,6.52-9.6,10-13.95.56-.7,0-2-.53-1.3-3.48,4.35-6.64,9.35-10,14-.54.73,0,2,.53,1.3Z"/><path class="cls-5" d="M160.76,12.69A9,9,0,0,0,162,10.93c.48-.85-.26-1.84-.74-1a6.93,6.93,0,0,1-1,1.45c-.58.63,0,1.93.53,1.3Z"/><path class="cls-5" d="M132.76,18.21a95.72,95.72,0,0,1,6.66-13.88c.49-.9-.26-1.94-.76-1a98.43,98.43,0,0,0-6.82,14.27c-.37,1,.55,1.67.92.65Z"/><path class="cls-5" d="M140.74,1.67c.42-.71.86-1.38,1.32-2a1.4,1.4,0,0,0,.2-1.22c-.13-.34-.5-.47-.74-.14C141-1,140.47-.19,140,.64s.25,1.9.76,1Z"/><path class="cls-5" d="M111.85,14.63c.76-3.05,1.36-6.24,2.12-9.3.3-1.19-.49-1.81-.78-.62-.76,3.06-1.36,6.24-2.13,9.3-.29,1.19.49,1.81.79.62Z"/><path class="cls-5" d="M115,1.14c.17-.81.34-1.62.49-2.44.23-1.23-.56-1.86-.79-.62-.15.81-.31,1.63-.49,2.43-.26,1.21.53,1.84.79.63Z"/><path d="M112.09,160.41a.81.81,0,0,1,0-1.61c1.75,0,3.51-.13,5.21-.27a.81.81,0,0,1,.13,1.61c-1.73.14-3.52.23-5.3.27Zm-5.26,0h0c-1.77-.07-3.55-.18-5.3-.35a.81.81,0,0,1-.73-.88.79.79,0,0,1,.88-.72c1.72.16,3.48.27,5.2.34a.81.81,0,0,1,0,1.61Zm15.84-.85a.84.84,0,0,1-.84-.67.77.77,0,0,1,.6-.92l.13,0c1.68-.25,3.37-.56,5-.92a.81.81,0,0,1,.34,1.58c-1.67.36-3.39.67-5.12.94Zm-26.32-.14h-.12c-1.75-.27-3.51-.59-5.23-.95a.8.8,0,1,1,.34-1.57c1.68.35,3.41.66,5.13.92a.82.82,0,0,1,.68.92A.81.81,0,0,1,96.35,159.38Zm36.5-2.07a.8.8,0,0,1-.22-1.58c1.68-.48,3.34-1,5-1.6a.8.8,0,0,1,.55,1.51c-1.64.6-3.35,1.15-5.06,1.64A.83.83,0,0,1,132.85,157.31Zm-46.8-.09-.21,0c-1.71-.47-3.42-1-5.08-1.55a.81.81,0,1,1,.52-1.53c1.62.55,3.3,1.06,5,1.52a.8.8,0,0,1-.21,1.58Zm-10-3.38a.85.85,0,0,1-.31-.06c-1.65-.68-3.28-1.42-4.84-2.2a.8.8,0,0,1,.71-1.44c1.54.76,3.13,1.49,4.75,2.15a.8.8,0,0,1,.43,1.05A.78.78,0,0,1,76.09,153.84Zm66.64-.11a.82.82,0,0,1-.74-.48.8.8,0,0,1,.41-1.06c1.59-.71,3.16-1.48,4.67-2.3a.81.81,0,1,1,.76,1.42c-1.54.83-3.15,1.62-4.77,2.35A1,1,0,0,1,142.73,153.73Zm-76.06-4.58a.77.77,0,0,1-.41-.11c-1.54-.92-3.05-1.9-4.47-2.9a.81.81,0,0,1,.94-1.32c1.38,1,2.85,1.94,4.35,2.84a.8.8,0,0,1,.29,1.1A.81.81,0,0,1,66.67,149.15Zm85.31-.41a.82.82,0,0,1-.68-.37.81.81,0,0,1,.25-1.12c1.45-.93,2.88-1.93,4.25-3a.81.81,0,0,1,1,1.28c-1.4,1.07-2.87,2.09-4.36,3.05A.8.8,0,0,1,152,148.74Zm-93.87-5.68a.79.79,0,0,1-.52-.2c-1.36-1.15-2.67-2.38-3.9-3.64a.81.81,0,1,1,1.16-1.12c1.19,1.22,2.46,2.41,3.78,3.54a.81.81,0,0,1-.52,1.42Zm102.24-.68a.81.81,0,0,1-.54-1.41c1.29-1.15,2.55-2.36,3.74-3.61a.81.81,0,0,1,1.16,1.12c-1.21,1.27-2.5,2.52-3.82,3.7A.86.86,0,0,1,160.35,142.38ZM50.8,135.52a.81.81,0,0,1-.63-.31,47.87,47.87,0,0,1-3.1-4.35.8.8,0,1,1,1.36-.86,48.22,48.22,0,0,0,3,4.21.81.81,0,0,1-.63,1.31Zm116.82-.73a.8.8,0,0,1-.62-1.31c1.09-1.33,2.15-2.73,3.14-4.14a.8.8,0,1,1,1.32.92c-1,1.45-2.1,2.88-3.21,4.24A.83.83,0,0,1,167.62,134.79Zm6-8.59a.81.81,0,0,1-.42-.12A.8.8,0,0,1,173,125c.88-1.47,1.73-3,2.53-4.55a.79.79,0,0,1,1.08-.35.8.8,0,0,1,.35,1.08c-.81,1.59-1.68,3.15-2.58,4.65A.81.81,0,0,1,173.67,126.2Zm4.8-9.36a.87.87,0,0,1-.32-.06.8.8,0,0,1-.42-1.06c.68-1.57,1.33-3.2,1.93-4.84a.8.8,0,0,1,1-.48.79.79,0,0,1,.48,1c-.61,1.67-1.27,3.33-2,4.93A.81.81,0,0,1,178.47,116.84Zm3.61-9.87a.62.62,0,0,1-.23,0,.8.8,0,0,1-.54-1c.5-1.64,1-3.33,1.38-5a.81.81,0,0,1,1.57.39c-.43,1.72-.9,3.44-1.41,5.11A.79.79,0,0,1,182.08,107Zm2.54-10.21h-.16a.8.8,0,0,1-.63-1c.33-1.67.63-3.41.89-5.15a.8.8,0,0,1,.92-.67.82.82,0,0,1,.68.92c-.27,1.76-.58,3.52-.91,5.21A.81.81,0,0,1,184.62,96.76Z"/><path d="M110.75,155.81c-23.5,0-50.1-9.58-61.18-30.19a.74.74,0,0,1,.3-1,.73.73,0,0,1,1,.3c12.65,23.54,46.19,32.3,71.33,28.6,32-4.72,52.53-26.25,57.81-60.62a.74.74,0,0,1,.84-.62.75.75,0,0,1,.62.85c-5.39,35.06-26.36,57-59,61.85A80.45,80.45,0,0,1,110.75,155.81Z"/><g class="cls-6"><path class="cls-7" d="M39.41,57.59C49.26,27.69,73.59,13.21,101.69,11c23.51-1.84,55,6.08,64.58,26.35"/><path class="cls-7" d="M43.84,56.16c8.95-26.95,31.52-40,57.71-41.91,21.91-1.62,51.36,5.57,60.46,23.86"/></g><g class="cls-8"><path class="cls-9" d="M105.44,146a168.94,168.94,0,0,0-21-16.12,6.28,6.28,0,0,0-4.57-1.41,5.2,5.2,0,0,0-3.18,1.91L64.62,142.51l-1.14-.83L75.66,129.6a6.37,6.37,0,0,1,4-2.36,7.56,7.56,0,0,1,5.55,1.63,170.56,170.56,0,0,1,21.17,16.25Z"/><path class="cls-9" d="M148.49,141.85l-31.41-23.57c-3.28-3-5.29-3.4-6.4-3.25a2,2,0,0,0-1.46.81L95.85,137l-1.13-.61,13.36-21.16a3.36,3.36,0,0,1,2.4-1.39c2.06-.27,4.56.92,7.46,3.54l32,23.85Z"/><path class="cls-9" d="M134.07,129.52l-.95-.82,12.51-12.21c1.74-1.3,5.69-2.85,8.59.21l14.34,10.72-.92.84-14.32-10.71c-2.89-3-6.65-.3-6.81-.19Z"/><path class="cls-10" d="M80.35,128.5s5.05,5,1.68,7.11c0,0,.58,1.53,5,.89,0,0,3.31,1.12,1.63,2.05A58.83,58.83,0,0,1,82.38,141s0,2.64,9.05,1.2c0,0,5.21.87,5.08,3.07-.32,5.32,12.83,6.54,17.82,6.25,0,0-7.85-6.7-27.38-20.79l-5.65-3.57S79.52,127.57,80.35,128.5Z"/><path class="cls-10" d="M112.2,114.56s1.1,2.49-.09,4.39c0,0-.17,1.28,3.87.1a1.26,1.26,0,0,1,.77,2.13,31,31,0,0,0-1,5.6s1.88,1,4.39-1.37,2.23,1.71,2.23,1.71-.61.36-1,2.47c0,0,2.12-.78,3,.81s-.08,4.51-.08,4.51,4-1.92,9.25.79S139,147.22,139,147.22s11.63-3.82,9.63-5.86c-3.11-3.16-34-25.69-34-25.69Z"/><path class="cls-10" d="M146.1,116.9s4.13,2.89,2.5,5.76a.62.62,0,0,0,.68.87,6.52,6.52,0,0,0,2.61-1s4.26,0,4.21,2.76a3.33,3.33,0,0,1-1.48,3.71c-2.54,1.69,1.21,1,1.21,1s1.45.66,4.8-2.31c0,0,3.2-1.66,2.07,2.09,0,0-2,2.85-.89,4.65a64.27,64.27,0,0,1,6.11-6.46l-9.42-7.37-5.48-4.2S148.5,114.56,146.1,116.9Z"/></g></svg>